<svg width="651" height="513" viewBox="0 0 651 513" fill="none" xmlns="http://www.w3.org/2000/svg">
<path d="M76.7724 502.132C77.1327 501.935 77.4334 502.014 77.8303 502.034C78.8526 502.922 80.1286 501.868 81.1682 502.681C81.5737 501.431 83.1043 501.257 84.2283 501.758C85.1066 502.925 85.834 501.742 86.685 501.478C87.4031 500.733 88.8879 501.561 88.9563 500.214C88.7567 499.098 89.9772 499.11 89.9195 498.07C90.6091 497.942 90.4619 497.35 90.771 496.792C91.7092 495.768 91.9588 497.121 92.2087 497.784C93.7062 498.368 91.7574 499.685 92.8207 500.33C94.0286 500.886 95.1514 500.32 96.3016 500.765C98.0316 500.328 97.7469 502.355 98.6402 503.193C97.8179 504.288 99.4379 504.352 99.5768 505.292C99.5098 506.439 100.208 507.474 99.464 508.503C99.6728 509.988 101.095 510.386 102.009 511.251C102.8 511.151 103.762 511.818 104.457 511.426C104.912 509.815 106.755 510.308 108.092 509.968C109.274 509.211 110.784 508.93 111.805 508.014C111.511 507.637 111.008 507.691 110.594 507.575C110.156 507.39 109.272 506.929 109.638 506.374C110.246 506.358 110.866 506.596 111.459 506.355C112.274 506.174 112.899 505.43 112.949 504.601C112.769 504.236 113.255 504.028 112.907 503.706C112.419 503.441 112.852 502.814 112.292 502.698C112.213 502.146 112.888 502.5 113.11 502.262C113.204 501.509 114.206 501.722 114.525 501.247C114.685 500.718 114.992 500.025 115.669 500.181C116.483 500.084 117.379 500.244 118.106 499.783C118.856 499.415 118.874 498.541 119.104 497.851C119.554 497.551 120.152 497.038 120.729 497.285C120.352 498.778 120.856 502.149 123.101 500.23C124.576 501.082 127.461 500.989 127.967 498.502C129.895 500.101 132.261 497.252 131.431 495.357C130.342 494.162 134.838 492.346 131.349 492.325C129.142 492.844 129.075 491.627 130.748 490.612C131.439 487.441 132.281 490.622 133.216 491.986C135.451 492.883 133.746 490.546 133.807 489.866C131.788 486.997 136.409 485.725 136.902 482.964C136.878 480.775 139.86 478.274 138.61 476.455C136.388 473.95 133.06 478.984 131.872 476.667C130.259 475.31 133.246 473.516 134.885 472.744C136.623 469.213 141.004 476.031 141.262 471.578C140.699 469.218 140.257 466.7 142.587 465.094C141.9 463.689 142.184 461.854 140.529 460.929C139.266 461.822 138.245 460.445 136.777 460.201C134.513 460.392 136.004 456.699 133.531 458.442C132.745 456.873 131.486 457.167 130.001 457.227C131.521 458.785 126.889 459.871 128.189 457.499C130.963 457.494 127.627 455.352 128.691 454.98C127.538 454.974 127.126 453.195 128.356 453.283C127.033 452.135 128.336 447.772 129.59 450.201C129.877 453.164 131.943 448.537 130.464 448.216C128.116 449.281 129.087 446.29 128.863 444.838C127.483 444.034 123.83 444.341 125.712 441.333C125.045 438.159 124.053 443.553 123.046 442.097C120.585 440.198 124.533 441.235 124.583 439.689C123.315 439.282 123.04 436.137 124.609 437.498C124.29 439.918 125.674 437.038 126.376 438.656C125.801 440.551 128.291 440.769 127.483 438.742C126.591 435.8 129.091 436.893 130.809 436.172C129.907 437.306 132.37 439.055 133.213 437.932C132.461 434.823 135.094 434.362 136.833 432.778C139.502 433.097 139.61 430.955 138.678 429.11C140.1 425.775 140.233 431.846 142.392 430.284C144.799 429.653 146.274 430.316 145.482 433.037C147.82 433.281 146.231 434.756 146.392 435.829C148.694 437.443 151.355 434.762 153.217 434.527C152.907 434.418 152.579 433.762 152.415 433.307C152.251 432.852 152.469 432.141 152.925 431.886C153.381 431.631 154.091 432.232 154.656 432.396C155.221 432.56 155.185 432.05 155.64 432.068C156.096 432.086 156.496 432.214 156.843 431.904C157.189 431.595 156.205 430.757 155.84 430.575C155.476 430.392 154.729 430.247 154.073 429.518C153.995 429.158 154.448 428.569 155.015 428.025C157.366 427.055 156.308 425.402 156.897 423.307C158.512 423.723 160.371 423.545 161.726 422.671C162.188 421.644 163.439 421.617 163.858 420.872C165.086 421.367 165.702 420.63 166.87 420.461C167.814 420.035 169.559 420.509 169.677 419.153C171.51 419.243 173.321 419.239 175.151 419.153C174.127 417.995 174.651 416.462 174.426 415.072C174.606 414.132 173.788 412.616 174.712 412.141C175.683 411.784 176.223 410.968 176.845 410.684C177.815 410.604 178.884 410.883 178.583 409.206C179.039 407.924 177.023 408.616 176.49 407.64C175.737 407.057 174.833 406.158 176.324 405.602C177.47 405.843 177.576 406.973 178.54 405.993C179.45 406.086 180.447 407.009 181.035 405.751C181.426 404.991 183.51 405.386 183.623 406.013C183.523 407.611 184.802 405.767 185.393 405.733C186.575 406.032 187.642 404.91 188.707 405.081C188.853 406.051 188.22 407.786 189.573 408.019C191.037 407.611 190.86 409.412 192.226 409.381C191.617 410.853 193.292 411.565 194.472 411.636C195.265 412.031 196.987 410.15 196.266 411.857C195.469 413.144 195.883 413.909 197.423 413.55C198.38 413.458 200.004 414.013 199.916 412.508C200.222 411.294 201.483 411.844 202.34 411.956C203.355 411.586 204.259 410.465 204.248 409.277C204.319 408.28 203.634 407.321 203.77 406.211C203.303 404.761 204.19 404.245 205.521 404.56C206.978 404.392 208.468 404.936 209.822 404.3C210.345 403.252 211.572 403.185 212.559 402.866C213.588 402.981 214.728 403.814 215.643 403.605C216.311 402.753 217.08 402.179 218.243 402.125C218.334 402.88 220.169 402.609 220.177 403.935C220.142 405.568 220.718 405.408 221.889 405.025C222.78 404.62 223.21 402.884 224.3 403.908C225.405 403.7 227.063 404.215 226.446 402.526C226.381 401.627 226.056 399.767 227.563 400.349C228.527 400.556 230.101 400.242 229.672 401.719C229.456 403.007 229.934 403.852 231.328 403.518C232.144 403.829 232.31 405.421 233.389 404.409C234.507 404.482 235.753 403.608 234.326 402.866C234.313 401.496 234.617 400.14 234.709 398.778C234.814 397.093 232.963 399.438 232.371 398.045C232.607 397.052 233.433 395.908 234.562 396.07C235.924 395.938 234.777 394.244 235.097 393.462C234.921 392.127 234.417 391.692 233.146 391.838C233.143 390.642 232.87 390.143 232.241 389.185C231.256 388.526 230.676 387.126 231.328 386.189C232.454 386.182 232.784 384.922 233.805 384.365C234.08 383.073 233.473 381.716 233.675 380.381C233.944 378.804 231.9 379.722 231.459 379.078C231.244 377.978 230.455 377.186 229.373 376.807C230.547 375.1 230.398 373.415 228.098 373.322C226.154 371.619 227.695 369.918 229.869 369.83C230.116 368.345 229.879 366.13 231.063 364.522C231.174 363.769 231.017 362.507 231.351 362.396C231.57 363.197 232.663 363.307 232.882 363.525C233.1 363.744 233.428 364.655 233.939 364.728C234.449 364.8 234.85 364.4 235.105 364.764C235.36 365.128 234.813 365.675 234.995 366.403C235.178 367.132 235.943 368.808 236.38 368.553C236.818 368.298 236.963 368.298 237.802 368.553C238.64 368.808 238.822 367.569 239.369 367.605C239.915 367.642 240.498 368.334 241.009 368.443C241.519 368.553 241.92 368.043 242.284 368.808C242.648 369.573 243.195 370.119 243.815 370.884C244.434 371.649 245.272 371.904 245.527 371.613C245.783 371.321 246.22 369.864 246.366 368.808C246.511 367.751 246.22 367.278 247.095 367.387C247.969 367.496 248.99 367.642 249.062 368.516C249.135 369.391 249.172 370.738 249.718 370.483C250.265 370.228 251.286 369.755 251.176 369.026C251.067 368.298 250.702 367.496 251.358 367.533C252.014 367.569 252.488 368.953 252.488 369.646C252.488 370.338 251.978 372.159 252.306 372.669C252.634 373.179 253.472 372.961 253.873 373.653C254.274 374.345 254.857 375.62 255.404 375.438C255.95 375.256 257.7 373.944 258.465 374.163C259.23 374.381 260.87 374.636 261.125 374.054C261.38 373.471 261.417 372.851 262.073 372.924C262.729 372.997 263.676 373.216 264.223 372.997C264.77 372.779 265.389 372.123 265.79 373.034C266.191 373.944 266.993 374.309 266.41 375.001C268.287 374.747 268.389 371.206 270.584 372.074C272.324 373.353 274.501 374.16 273.621 376.811C274.631 378.401 275.781 375.729 274.44 374.927C273.41 371.801 277.355 372.929 278.85 371.882C280.226 370.121 280.297 373.315 281.973 372.704C282.01 374.72 283.806 375.143 285.624 374.837C284.864 373.542 287.744 372.287 288.193 374.01C287.459 376.945 291.517 377.016 291.736 374.347C293.985 373.642 293.406 370.765 290.965 371.38C287.288 371.928 292.039 366.361 289.238 366.404C287.432 367.041 286.607 366.099 286.854 364.299C287.004 363.409 291.584 362.806 289.569 361.641C287.144 362.679 287.715 359.796 289.722 359.869C289.855 357.679 286.676 358.344 287.073 355.865C285.949 352.971 289.056 353.931 290.735 353.302C293.156 353.546 294.659 352.318 294.675 349.837C295.002 349.788 295.293 349.88 295.613 349.929C295.467 349.336 296.098 349.373 296.507 349.096C297.084 348.632 298.428 348.761 299.299 348.586C299.131 347.552 299.005 346.2 299.179 345.01C299.201 343.696 301.275 344.208 302.234 344.234V341.451C301.908 340.285 303.229 340.904 303.925 340.604C304.507 340.235 306.943 340.25 305.493 341.107C305.892 342.392 305.763 343.764 305.903 345.075C306.922 345.497 307.852 343.992 308.117 343.046C308.481 342.169 308.52 339.665 309.629 340.242C310.647 340.954 310.494 342.049 310.827 343.156C311.906 343.577 313.116 344.03 313.072 345.457C312.987 346.564 313.931 346.052 314.496 346.445C315.119 347.442 315.724 346.768 315.626 345.839C314.848 344.74 316.815 345.068 316.423 343.94C315.466 342.705 317.767 343.022 318.345 342.279C317.595 341.698 317.506 340.971 317.835 340.097C316.814 339.845 317.4 338.189 318.397 338.739C319.401 339.785 319.934 338.161 320.979 338.52C321.047 337.598 322.773 337.77 322.437 336.677C323.458 335.771 323.127 334.745 322.037 334.069C321.279 333.285 320.172 332.753 319.189 332.715C319.313 331.703 319.204 330.646 319.44 329.641L319.898 329.641C322.31 328.893 321.83 332.525 324.313 331.991C324.436 330.831 325.593 330.59 326.64 330.795C327.455 328.313 331.303 331.448 331.99 328.477C333.267 329.023 334.32 327.024 333.126 326.514C333.289 325.381 333.441 324.245 333.626 323.118C333.825 321.525 332.658 318.515 335.074 318.596C336.99 319.003 336.016 318.344 336.454 317.296C336.053 317.077 336.125 316.303 336.125 316.303C336.125 316.303 335.868 315.788 335.739 315.169C335.61 314.551 336.795 314.397 336.873 313.881C336.95 313.366 336.332 312.877 335.662 312.516C334.992 312.155 334.115 312.284 333.755 311.924C333.394 311.563 334.038 311.383 334.425 311.022C334.811 310.661 334.27 310.249 334.399 309.579C334.528 308.91 334.657 308.807 334.45 308.498C334.669 308.353 335.22 309.025 335.657 309.133C335.832 307.195 337.149 306.334 339.065 306.59C339.687 307.602 339.847 309.056 341.58 308.621C341.849 308.014 342.234 306.435 343.437 307.415C343.564 307.864 343.752 308.312 344.066 308.697C344.185 308.734 344.324 308.843 344.508 309.063C345.236 309.937 346.548 309.864 346.986 309.245C347.423 308.625 348.225 308.88 348.735 308.844C349.245 308.808 349.646 308.188 349.209 307.751C348.771 307.314 347.678 306.476 347.86 306.039C348.043 305.602 349.282 305.165 349.682 305.165C349.979 305.165 350.514 305.045 350.788 305.218C352.187 304.661 351.227 303.099 352.293 302.067C353.603 301.493 352.97 298.16 354.822 299.643C358.222 300.375 353.846 296.358 356.471 296.468C357.78 296.209 357.63 293.951 358.157 292.848C359.202 292.669 359.727 291.848 358.641 291.005C358.197 288.948 360.122 289.42 361.018 288.337C361.553 288.103 362.076 287.845 362.621 287.634C363.416 287.309 364.051 286.604 364.925 286.703C364.861 286.112 365.595 284.841 365.893 285.909C366.395 285.998 366.454 286.255 366.622 286.783C367.226 288.228 367.659 286.321 368.184 285.992C368.534 286.061 369.154 285.837 369.299 286.141C368.59 287.102 369.214 288.332 369.306 289.396C369.575 290.21 371.061 289.85 371.847 290.071C372.997 290.442 372.51 291.773 371.723 292.28C370.335 292.396 372.122 293.531 371.421 294.17C371.298 294.922 369.828 294.37 370.273 295.243C369.789 295.415 369.397 295.689 368.968 296.063C368.072 295.922 368.08 297.035 368.897 297.073C369.846 297.07 370.681 297.731 371.592 297.616C372.285 297.956 373.437 297.799 373.86 297.197C374.424 296.863 374.942 297.326 374.542 297.93C374.044 298.921 375.358 299.205 375.37 299.994C375.699 300.686 376.893 301.102 377.579 300.73C377.981 300.216 378.383 300.142 379.006 300.422C379.393 300.054 380.029 299.713 380.602 299.464C380.865 298.716 379.6 296.803 381.221 297.237C381.912 297.863 382.782 298.296 383.698 298.501C383.771 297.535 385.665 297.498 385.095 296.565C384.583 294.621 381.526 295.521 381.254 293.516C380.987 291.505 383.993 291.518 383.833 289.619C385.091 287.414 380.747 288.852 382.004 286.644C383.395 286.39 385.609 287.585 386.305 286.123C386.466 285.147 381.513 284.923 384.35 284.689C385.443 284.783 386.207 281.769 387.161 284.023C389.726 283.167 384.836 281.624 387.348 280.65C387.634 280.422 386.512 278.046 388.521 278.175C389.078 278.509 390.683 277.5 391.779 277.914C390.564 279.781 392.707 279.808 393.678 278.58C395.297 278.426 398.115 276.772 399.801 276.993C400.008 276.375 400.033 273.644 399.569 272.897C399.106 272.15 398.513 271.3 398.384 270.527C398.255 269.755 398.539 267.539 398.977 267.385C399.415 267.23 399.647 266.87 400.008 266.303C400.368 265.736 400.755 265.169 401.631 265.736C402.507 266.303 403.126 266.097 403.512 265.453C403.899 264.809 404.517 263.237 404.904 262.516C405.29 261.795 406.115 258.214 406.476 258.008C406.836 257.802 407.558 257.184 408.099 257.107C408.64 257.029 409.187 256.402 409.187 256.402C409.627 256.491 410.133 256.562 410.47 256.514C411.011 256.437 411.552 255.947 411.939 255.947C412.428 256.05 413.253 256.617 413.949 256.36C414.645 256.102 415.16 256.128 415.186 255.587C415.211 255.046 414.748 254.35 415.366 253.861C414.53 253.176 413.574 254.695 413.324 253.377C411.149 253.127 411.675 251.67 410.259 250.964C410.415 248.524 408.219 250.04 406.769 249.249C406.44 248.027 409.227 245.543 406.575 246.08C404.731 247.277 404.145 245.371 404.814 243.647C403.335 242.871 400.923 245.077 400.98 242.801C401.207 241.148 399.662 240.147 400.34 238.466C399.774 236.274 402.219 238.52 403.249 238.174C403.037 236.722 403.332 235.195 404.032 234.005C405.455 233.878 406.087 236.554 407.238 234.865C407.753 233.527 405.362 231.773 406.629 231.079C407.207 229.719 408.832 227.881 407.287 227.373C406.907 226.193 408.505 224.743 408.724 223.321C408.241 221.141 410.86 222.107 411.62 221.517C412.654 219.138 408.275 220.998 408.405 219.05C408.327 217.923 410.898 216.755 411.572 217.104C412.969 217.046 414.054 215.321 415.082 215.055C416.66 215.661 417.506 217.383 419.021 217.979C421.103 217.813 420.93 220.52 422.775 220.644C423.444 221.663 423.135 224.298 425.408 222.669C426.488 221.667 428.324 223.188 429.964 222.927C431.011 224.377 433.387 223.841 434.14 222.409C433.065 220.222 435.169 218.357 434.981 216.18C434.012 215.283 433.286 213.883 434.01 212.376C434.779 210.65 433.028 209.143 435.474 209.564C436.311 207.634 438.02 207.947 439.511 207.92C440.353 205.904 441.977 206.576 443.436 206.334C445.237 205.086 443.412 203.166 443.134 201.726C443.794 200.22 440.859 198.072 442.292 197.817C443.781 197.853 444.461 196.144 444.046 194.56C443.672 193.073 442.569 191.808 442.222 190.226C439.845 190.401 441.43 187.326 442.774 187.547C444.541 187.833 445.828 185.956 446.784 185.049C446.724 183.521 448.596 182.638 448.481 180.769C449.307 178.672 447.091 178.032 446.002 177.197C447.61 174.947 443.964 175.6 442.743 174.852C442.857 173.117 443.264 171.169 443.994 169.606C444.501 169.498 444.968 169.451 445.237 169.536C445.929 169.754 445.82 170.301 445.346 170.592C444.872 170.884 444.69 171.831 445.419 171.977C446.148 172.122 448.517 172.05 448.991 172.341C448.991 172.341 449.61 172.632 449.61 173.507C449.61 174.381 450.302 175.51 451.177 176.166C452.052 176.822 453.837 177.66 454.639 177.733C455.441 177.805 456.571 177.15 457.081 177.842C457.591 178.534 457.409 179.408 458.065 179.372C458.721 179.336 459.596 179.153 459.741 178.243C459.887 177.332 460.58 177.186 461.126 177.295C461.673 177.405 462.693 177.113 463.313 177.04C463.932 176.968 465.354 177.733 465.9 177.514C466.447 177.295 467.066 177.077 467.795 177.587C468.524 178.097 469.909 178.279 470.565 178.498C471.221 178.716 473.736 178.789 474.428 179.445C475.12 180.101 474.719 180.793 475.23 181.084C475.74 181.376 476.906 181.958 476.906 181.448C476.906 180.938 476.979 180.101 477.562 180.064C478.145 180.028 479.275 181.048 479.566 181.048C479.858 181.048 480.259 180.246 480.769 180.246C481.279 180.246 482.19 180.574 482.3 180.975C482.409 181.376 482.482 182.359 482.773 182.505C483.065 182.651 483.466 181.448 484.304 181.74C485.142 182.031 485.507 181.995 485.981 181.813C487.435 183.416 487.811 185.818 487.971 187.751C486.439 190.099 489.351 190.962 490.917 189.56C492.605 189.336 496.517 188.842 496.128 191.54C494.706 193.487 497.482 194.737 496.897 196.266C495.109 196.939 494.054 199.138 496.916 198.53C498.425 196.892 499.122 198.592 500.356 199.316C502.281 198.085 503.299 199.934 504.847 200.258C507.277 199.14 506.579 202.44 508.902 202.097C511.408 203.196 513.295 207.739 516.405 204.962C514.659 203.699 515.316 201.44 517.335 200.671C517.508 198.579 519.315 196.291 517.624 194.415C518.425 192.652 521.79 194.833 523.084 195.656C523.291 197.738 524.394 196.745 525.77 196.741C528.453 196.163 529.293 199.334 531.782 199.878C534.731 198.576 535.17 203.459 537.489 202.14C539.326 202.426 540.828 201.623 539.364 199.774C539.848 199.332 540.293 198.619 540.755 198.425C541.447 198.133 542.103 197.623 542.03 198.243C541.957 198.862 541.957 200.283 542.431 200.683C542.905 201.084 543.707 200.611 544.727 201.449C545.747 202.286 546.221 202.651 546.44 202.068C546.659 201.485 546.404 199.736 546.841 198.935C547.278 198.133 548.153 196.968 548.845 196.713C549.538 196.458 552.016 196.203 552.963 196.13C553.911 196.057 555.478 195.51 556.025 194.891C556.571 194.272 556.79 193.652 557.701 193.725C558.612 193.798 561.568 194.991 561.568 194.991C562.038 195.274 562.675 195.948 563.186 196.439C563.696 196.931 565.117 198.844 565.263 199.226C565.409 199.609 566.302 200.501 566.794 200.993C567.286 201.485 568.16 202.268 568.634 202.232C569.108 202.195 570.42 202.268 570.875 202.232C571.331 202.195 572.151 202.578 572.479 203.106C572.807 203.634 573.845 204.891 574.046 205.401C574.246 205.911 573.991 206.603 574.228 207.041C574.465 207.478 575.03 208.297 575.412 208.698C575.795 209.099 576.232 210.793 576.16 211.285C576.087 211.776 575.522 212.56 575.485 213.07C575.449 213.58 575.394 214.163 575.176 214.509C574.957 214.855 574.501 215.693 574.775 216.148C575.048 216.603 575.321 217.168 575.321 217.623C575.321 218.079 575.303 218.461 574.848 218.48C574.392 218.498 574.046 218.898 573.9 219.062C573.754 219.226 573.608 219.755 573.536 219.918C573.463 220.082 572.625 221.449 572.552 221.813C572.479 222.177 572.369 223.871 572.224 224.235C572.078 224.6 572.041 225.347 572.187 225.838C572.333 226.33 572.698 226.931 573.08 227.387C573.463 227.842 573.609 228.498 573.463 228.826C573.317 229.153 572.297 230.228 571.878 230.337C571.459 230.447 570.365 231.321 569.819 231.321C569.272 231.321 568.197 231.576 567.924 231.94C567.65 232.305 566.885 233.653 566.739 234.072C566.593 234.49 566.593 235.948 566.94 236.549C567.286 237.15 567.231 238.297 567.741 238.844C568.252 239.39 568.58 239.208 569.254 238.99C569.928 238.771 570.329 238.643 570.766 238.716C571.204 238.789 571.167 237.915 571.659 238.115C572.151 238.316 572.443 238.516 572.679 238.953C572.916 239.39 573.244 240.192 573.135 240.629C573.026 241.066 572.916 242.378 573.117 242.942C573.317 243.507 573.664 244.126 573.919 244.545C574.174 244.964 574.538 246.367 574.52 246.95C574.502 247.532 574.21 249.991 574.411 250.52C574.611 251.048 574.957 252.578 574.812 252.942C574.666 253.307 573.828 254.181 573.372 254.527C572.917 254.873 570.802 255.766 570.802 255.766L570.383 255.948C570.383 255.948 571.167 257.423 571.914 257.933C572.661 258.443 573.044 259.281 573.481 259.536C573.918 259.791 574.92 260.01 575.412 259.809C575.904 259.609 577.326 260.064 577.854 260.41C578.383 260.756 579.403 261.521 579.858 261.959C580.314 262.396 583.776 265.11 584.25 265.183C584.724 265.256 585.416 266.348 585.781 266.695C586.145 267.041 588.969 266.84 589.625 266.403C590.281 265.966 591.611 266.075 592.049 265.893C592.486 265.711 593.288 265.565 593.816 265.766C594.345 265.966 595.73 266.421 596.149 266.112C596.568 265.802 596.969 265.365 597.224 265.347C597.479 265.328 598.645 265.183 598.736 265.073C598.827 264.964 599.611 264.181 599.611 264.181C599.428 263.634 598.335 262.287 598.08 262.177C597.825 262.068 596.695 261.485 597.205 261.048C597.716 260.611 598.517 260.465 599.538 260.501C600.558 260.538 601.105 258.935 601.797 258.716C602.49 258.498 603.802 257.878 604.603 257.405C605.405 256.931 606.134 256.021 605.952 255.401C605.77 254.782 604.385 252.232 603.875 251.758C603.364 251.285 599.246 247.314 599.21 246.694C599.174 246.075 599.611 245.711 599.611 244.837C599.611 243.962 598.991 243.197 599.684 242.76C600.376 242.323 601.724 240.429 601.834 240.064C601.943 239.7 601.141 238.571 601.433 238.243C601.724 237.915 602.672 237.66 603.146 237.113C603.619 236.567 604.093 236.239 604.02 235.693C603.947 235.146 603.364 234.891 603.911 234.563C604.458 234.235 604.64 234.709 604.749 234.053C604.859 233.398 603.875 232.523 604.02 231.904C604.166 231.285 604.567 231.54 605.077 230.775C605.587 230.01 605.296 229.463 605.915 229.317C606.535 229.172 607.738 228.152 607.956 228.042C608.175 227.933 609.049 228.552 609.159 227.897C609.268 227.241 609.159 226.075 608.794 225.602C608.43 225.128 608.211 224.654 608.539 223.926C608.867 223.197 609.138 222.537 609.37 222.537C609.602 222.537 611.007 222.099 611.574 222.022C612.141 221.944 613.094 221.558 613.377 221.017C613.661 220.476 613.893 219.034 614.254 218.493C614.614 217.952 615.413 217.127 615.671 216.664C615.929 216.2 615.826 215.556 616.186 215.453C616.547 215.35 617.629 215.324 618.196 215.324C618.763 215.324 619.588 214.912 619.614 214.5C619.639 214.088 619.897 213.031 620.129 212.568C620.361 212.104 620.284 211.975 620.773 211.692C621.263 211.409 621.881 210.687 622.113 210.404C622.345 210.121 623.556 209.915 623.788 209.94C624.02 209.966 624.639 211.331 624.768 211.795C624.896 212.259 624.433 213.006 624.793 213.521C625.154 214.036 625.592 214.835 625.618 215.324C625.643 215.814 625.205 216.458 625.798 217.153C626.391 217.849 627.087 218.209 627.55 217.797C628.014 217.385 628.117 217.076 628.736 217.024C629.354 216.973 630.369 216.421 630.624 216.312C630.879 216.203 632.264 216.13 632.592 216.603C632.92 217.077 632.592 217.878 632.556 218.643C632.534 219.101 632.329 219.416 632.364 219.672C632.544 219.837 633.114 219.841 633.566 219.803C635.321 219.409 637.325 220.119 638.519 218.5C639.035 216.866 641.059 216.778 641.919 215.883C642.495 214.729 646.203 214.275 644.687 212.949C642.356 212.654 642.252 210.099 640.985 208.587C641.436 207.943 644.359 207.083 645.856 207.165C648.762 207.35 649.891 203.689 648.296 201.629C647.344 200.119 644.222 201.116 644.454 198.39C643.514 196.052 640.577 198.759 639.04 197.132C638.98 194.815 636.105 194.426 634.348 193.744C632.904 193.444 629.393 194.858 630.364 192.155C630.108 190.353 632.286 187.505 630.027 186.503C628.572 185.088 626.705 184.178 624.64 183.843C623.891 182.207 621.752 181.884 620.923 180.324C621.814 178.086 621.098 176.713 618.8 176.415C617.504 176.432 613.939 176.524 615.16 178.306C617.384 178.608 616.385 182.473 614.797 179.673C613.145 179.171 611.289 179.11 609.453 179.151C609.288 175.879 611.858 179.326 613.345 177.284C615.433 176.763 615.221 174.434 616.882 173.549C619.002 172.885 616.075 169.688 614.473 170.681C613.38 171.872 610.259 170.761 610.227 169.421C609.915 167.39 612.732 167.947 613.557 166.772C615.409 167.035 615.907 169.322 618.23 168.797C620.42 168.358 620.054 166.28 620.872 164.849C622.33 163.209 619.459 162.461 621.012 160.553C621.455 158.727 621.523 157.082 620.709 155.474C622.11 153.646 619.058 152.906 618.015 152.403C617.187 151.855 614.163 150.648 613.502 152.247C612.236 153.005 609.621 152.066 608.802 150.554C608.543 148.717 610.814 148.475 610.936 147.188C610.544 146.24 607.078 143.777 609.539 143.317C612.367 143.149 614.684 140.566 617.692 141.192C620.124 142.254 620.334 138.095 622.494 138.003C624.198 137.351 626.942 137.973 627.161 136.359C626.043 135.097 626.58 132.957 624.963 132.376C623.594 130.546 627.042 128.947 625.354 127.425C626.561 125.444 626.276 122.876 626.527 120.649C626.638 119.24 627.234 118.399 626.919 117.131C626.956 115.579 628.1 114.577 625.54 114.423C623.361 113.204 622.102 115.49 620.271 116.089C618.036 117.552 617.553 115.221 616.361 113.874C616.124 111.944 618.471 110.952 619.88 110.226C621.093 109.376 624.115 110.129 624.181 108.141C623.096 106.835 621.647 105.583 622.226 103.581C621.134 101.958 620.926 99.3163 622.226 97.8478C622.137 96.3308 621.607 94.8675 621.757 93.3106C622.259 91.8101 620.796 90.5152 621.028 89.1257C621.112 88.4087 619.197 89.1674 618.518 89.1262C617.189 89.0595 615.493 89.6574 614.39 88.9426C613.611 87.3001 612.838 85.6327 612.726 83.7569C611.947 83.1924 611.533 82.519 612.657 81.9627C613.501 81.0801 614.224 79.6473 613.386 78.4251C613.448 77.2019 612.143 75.8483 613.114 74.7311C614.22 74.8259 613.778 74.0084 612.972 73.8737C613.784 72.6794 614.051 71.2739 614.399 69.9477C615.483 69.9006 616.506 69.7672 617.436 69.0423C618.803 69.3164 618.699 68.0975 619.524 67.3706C621.307 68.3444 622.907 67.0796 624.178 65.9747C625.938 65.8983 626.872 64.4181 628.413 63.8048C629.356 62.8223 629.124 60.7994 630.806 60.3983C632.436 59.7973 631.169 57.9714 630.273 57.2651C629.29 57.3734 627.457 58.7263 626.527 57.8475C624.444 58.3254 624.529 55.6491 622.572 56.0229C623.38 54.8386 622.008 54.6575 620.888 54.2071C620.027 52.4723 618.33 52.6319 616.767 52.0334C615.743 52.6833 613.951 50.9647 613.552 52.2578C613.831 54.7334 611.552 53.8197 610.015 53.5112C608.236 51.7822 609.865 50.0873 610.722 48.5072C610.421 46.2094 607.528 45.5754 607.761 43.0426C607.837 40.6609 603.428 41.4246 604.143 38.9581C603.943 36.9057 601.763 38.6017 601.244 37.269C600.22 36.1009 599.321 33.5968 597.201 34.2643C595.63 35.1377 594.343 32.4876 593.2 32.6609C592.891 33.3307 592.607 34.0004 591.705 34.1035C590.803 34.2065 590.623 35.4945 590.159 35.4945C589.695 35.4945 588.355 35.0823 587.763 35.2111C587.17 35.3399 587.428 35.7779 587.453 36.2673C587.479 36.7567 586.242 36.6279 585.856 36.9371C585.469 37.2462 585.727 37.7614 585.005 38.3796C584.284 38.9978 583.665 39.5903 583.021 39.5388C582.377 39.4873 581.423 39.0751 580.753 39.3842C580.083 39.6934 579.336 40.595 578.563 40.8526C577.79 41.1102 577.223 41.4193 576.785 40.801C576.347 40.1828 576.244 39.1524 575.548 39.1009C574.852 39.0494 574.594 39.4615 573.95 39.513C573.306 39.5646 572.791 39.2039 572.301 39.8479C571.811 40.4919 571.502 42.0375 571.502 42.0375C570.868 42.0559 570.243 41.9133 569.615 41.9826C569.18 41.4273 568.67 41.5107 568.002 41.46C566.865 41.7568 566.341 40.8054 565.389 40.4794C564.178 40.4662 563.892 39.3475 563.142 38.6432C561.765 37.087 559.689 36.5891 557.78 36.0176C556.699 35.1569 556 36.8292 554.889 36.5975C554.017 36.1253 553.707 36.9954 553.244 37.3542C552.425 37.6231 550.949 37.0919 550.835 38.3235C550.584 39.9098 548.667 39.4712 547.537 39.3457C546.563 39.7541 545.477 39.8618 544.496 40.3852C543.469 39.9828 542.483 40.0893 541.414 40.3881C541.145 40.1018 541.078 39.824 541.284 39.476C542.06 38.4057 540.846 38.0553 540.214 37.5138C538.765 37.5949 539.175 36.1482 538.807 35.4367C537.692 34.7298 538.973 33.9847 539.459 33.7431C538.738 33.1152 538.472 32.4907 538.162 31.4789C537.64 30.5393 537.416 29.5719 536.167 29.3706C535.236 28.5468 534.321 29.4781 533.256 29.3131C532.53 29.0216 531.551 28.0372 530.986 29.1833C530.166 30.5353 528.557 29.7633 527.345 29.5737C526.295 29.6272 526.009 28.8919 524.703 28.9782C523.626 29.152 522.446 28.6278 521.321 28.3888C520.488 27.951 520.342 26.8051 519.246 26.5746C518.595 26.4707 515.965 25.6057 517.431 26.7072C516.533 27.4747 515.84 28.638 516.258 29.8343C517.527 29.8767 516.596 31.4637 516.258 31.919C515.07 31.8344 513.901 31.5424 512.713 31.4228C511.716 31.4012 510.143 30.5759 510.16 32.172C509.842 33.0995 508.861 33.8108 507.836 33.8373C506.209 34.018 507.016 34.9831 506.613 35.6975C505.632 36.0924 505.256 34.9329 503.928 35.4213C502.697 35.72 501.528 35.2508 500.292 35.6623C499.267 36.2263 498.79 35.0099 498.27 34.3947C497.143 34.3659 496.309 34.6759 495.596 35.556C494.65 36.4023 493.429 36.3891 492.252 36.4793C491.457 36.543 491.442 38.6596 492.584 38.4102C494.002 39.5554 491.755 38.4835 491.397 39.1469C491.037 40.0349 493.387 40.1945 492.666 41.3996C492.419 42.5383 494.93 42.1414 493.679 43.3277C494.022 44.7335 492.622 45.3154 491.653 44.3882C490.666 43.3334 489.91 44.1192 489.452 45.0205C488.636 45.0236 487.268 43.6994 486.671 44.5575C485.749 44.8838 484.745 44.5419 483.837 44.6398C483.021 44.697 481.635 44.2981 481.327 45.3393C480.971 46.5522 479.951 46.3927 479.762 45.0558C479.488 44.0827 477.886 44.2982 478.12 45.6264C477.713 46.1961 476.682 46.9996 475.855 46.2956C474.931 46.1284 474.639 45.2437 473.753 45.5581C473.246 44.6564 471.693 45.9061 470.865 45.1679C469.85 44.588 468.99 46.2797 468.123 45.2263C467.268 44.4554 466.528 45.2366 465.555 44.6878C464.588 44.1425 464.425 42.619 463.861 42.7334C462.903 42.1599 461.885 41.6393 460.732 41.8213C459.653 41.0609 459.005 42.1812 458.386 42.4728C457.798 43.5105 456.972 43.3139 456.04 43.5151C455.245 44.3248 454.543 43.6833 453.455 44.0165C453.473 43.47 454.402 42.9418 454.475 42.5957C454.548 42.2496 453.564 41.9036 453.582 41.5757C453.601 41.2478 454.184 40.5739 454.238 40.1914C454.293 39.8088 453.221 39.2812 453.015 38.8175C452.809 38.3539 452.603 37.8902 452.654 37.478C452.706 37.0659 453.109 36.0566 452.453 35.6194C451.797 35.1822 450.302 34.7086 449.61 34.7451C449.394 34.7565 449.142 34.7181 448.891 34.6529C450.058 36.0049 448.443 38.5431 446.794 37.3953C446.177 35.4531 444.113 39.3364 443.397 37.6916C442.874 37.0407 440.509 36.0032 439.617 36.8304C441.413 38.0968 440.28 38.6833 438.314 38.6943C437.027 40.2398 435.059 39.1179 433.491 39.3457C432.36 40.3302 433.12 42.2509 433.21 42.9441C432.825 44.5378 430.68 45.044 429.384 46.0209C427.233 46.4923 425.939 48.6034 423.753 48.82C422.187 49.0633 420.922 50.521 419.414 50.551C418.205 51.6315 416.819 51.7511 415.32 51.7942C414.549 52.7545 413.105 53.1446 411.463 53.4175C409.734 53.5955 410.14 52.7066 408.093 52.617C406.592 52.1233 404.882 50.3393 403.347 51.0479C403.214 52.7313 401.931 52.8715 400.384 53.0266C398.614 52.5319 398.682 55.4026 396.535 54.8354C395.754 54.4591 395.227 53.1381 394.91 51.9843C394.109 52.5943 392.668 55.3218 392.564 52.766C391.286 51.7378 389.988 53.2701 388.523 52.2449C386.418 51.6135 389.42 55.4739 386.861 54.3947C385.923 54.4333 384.253 53.4789 382.918 53.2872C381.497 53.4371 379.352 54.0105 378.502 53.0881C378.566 51.4664 377.992 50.0148 377.256 48.6273C377.958 46.7544 375.521 46.5417 374.707 45.5998C375.276 44.0624 373.053 43.0974 373.18 41.4678C373.314 39.5529 375.792 40.8124 376.271 39.3457C377.687 39.9454 379.665 38.8794 380.702 40.1275C382.285 40.8742 384.03 40.8631 385.619 41.5183C387.037 41.8912 389.525 39.9081 387.209 39.1214C385.418 39.8784 384.952 38.14 385.371 36.5436C385.103 34.7761 385.558 33.5481 384.412 32.0978C384.683 30.4107 383.125 29.5797 383.049 27.8798C381.895 26.7184 381.255 26.5689 380.311 25.1437C379.776 23.7986 377.237 23.7647 377.705 22.2772C374.641 23.1163 371.329 23.9008 368.059 23.1892C366.529 22.9141 365.215 23.7221 363.667 23.1892C361.57 22.3532 362.086 24.2975 362.715 25.0134C362.552 26.4042 360.56 26.0895 359.364 26.6101C357.258 25.7811 358.101 29.0676 355.937 28.2707C354.662 28.2441 354.834 26.4981 354.845 25.8494C354.357 25.672 353.9 25.5433 353.649 25.8088C353.185 26.2982 353.52 27.4317 352.695 27.2256C351.871 27.0195 351.123 26.3755 350.427 26.3755C349.732 26.3755 347.49 26.8907 346.974 26.6331C346.459 26.3755 346.047 26.0149 345.763 26.427C345.48 26.8392 345.196 27.4574 344.294 27.5605C343.392 27.6635 342.825 28.5909 342.001 28.8742C341.176 29.1576 340.068 29.3637 339.707 30.0334C339.347 30.7032 338.651 31.0638 338.135 31.3214C337.62 31.579 336.022 32.8928 335.481 33.3822C334.94 33.8716 334.322 33.8201 333.677 34.4126C333.033 35.0051 333.11 35.7006 332.389 35.9324C331.667 36.1643 330.508 35.9324 329.992 35.5718C329.477 35.2111 329.013 34.3353 328.137 34.8763C327.261 35.4172 327.312 36.0355 327.029 36.5764C326.745 37.1174 325.56 36.7567 325.07 36.6537C324.581 36.5507 324.065 36.0355 323.808 36.5507C323.55 37.0659 322.906 37.7871 322.648 38.2508C322.39 38.7145 322.983 40.2086 323.215 40.595C323.447 40.9814 322.777 41.7026 322.287 41.7026C321.798 41.7026 321.128 41.8572 320.844 42.4754C320.924 42.6852 321.608 42.9332 322.107 43.2172C324.131 43.9003 323.347 46.3605 321.958 47.1434C320.052 47.6548 318.953 48.9397 318.97 50.832C316.129 52.9315 312.793 54.4694 310.187 56.9354C310.774 58.5632 312.298 59.5696 313.055 61.1048C313.094 61.7981 312.907 62.4734 312.92 63.168C313.134 64.0058 312.594 63.7362 311.99 63.7549C311.2 64.1081 310.663 65.2338 310.698 66.1159C310.858 66.7047 310.566 68.4451 309.822 68.0273C309.156 67.7099 308.084 67.9969 307.172 67.7163C306.218 67.242 305.027 67.0208 304.085 67.6273C303.274 67.8748 302.684 68.8884 301.744 68.4532C300.918 68.5204 299.875 67.3715 299.278 68.1313C298.459 69.0389 298.617 70.3222 298.318 71.4002C297.363 71.3004 297.986 72.6914 297.02 72.5463C296.411 73.0071 297.003 74.6532 295.833 74.5767C295.133 75.5504 293.293 74.3672 293.21 75.6978C292.94 76.6199 291.249 76.0531 291.027 77.2613C288.235 76.8365 284.889 78.2166 282.351 76.8877C280.643 74.9631 276.636 76.657 274.117 76.746C274.445 74.9059 272.865 74.4981 271.473 73.5519C273.12 71.6731 267.829 70.4458 270.673 69.4856C274.703 72.0171 275.163 66.0245 272.24 64.9335C272.868 63.5243 273.716 62.2759 272.025 60.8407C269.443 59.7855 270.553 53.7414 267.491 54.2364C264.909 56.5643 262.613 53.9167 259.794 53.5966C257.643 50.9721 254.319 53.4519 251.628 51.8271C248.706 53.6644 245.404 52.3042 242.018 52.8523C238.509 51.4034 235.166 53.6919 231.556 53.2273C228.984 50.3748 226.088 55.3747 223.361 53.0519C219.933 52.2391 216.036 51.8951 212.716 53.0956C210.345 51.0479 208.006 52.6303 205.132 52.3751C206.144 49.8144 203.53 50.8142 202.189 51.2317C200.68 50.5432 199.274 50.7166 197.702 50.551C197.475 50.4641 197.289 50.3042 197.105 50.1512C195.737 49.3196 194.131 48.9503 192.686 48.2627C190.992 47.823 189.624 46.5697 189.165 44.8669C188.244 43.9865 188.617 42.443 187.673 41.5729C187.192 40.5564 186.208 39.8054 185.841 38.6942C184.845 38.344 183.718 38.4436 182.76 38.0208C182.012 36.8486 180.557 36.4943 179.324 36.0884C177.664 35.9144 176.04 35.284 174.49 34.7258C173.789 33.5766 172.574 33.0126 171.2 33.4802C170.126 32.8757 169.503 34.2744 168.276 34.3494C168.002 35.3978 166.639 35.1508 165.776 34.6502C165.391 35.4572 164.11 35.0497 163.422 34.6551C161.788 34.7168 160.234 34.1125 158.653 33.8299C156.731 33.6658 155.68 31.7214 153.797 31.5574C152.069 31.397 150.368 30.8482 148.642 30.7492C148.521 29.6678 147.995 28.4454 146.647 29.561C145.651 29.1468 147.051 27.1313 145.52 26.3928C144.144 26.8721 141.587 26.5805 142.703 24.5296C143.492 22.7638 141.568 21.631 141.789 19.6849C142.863 17.6789 142.874 15.1836 142.957 12.896C144.752 11.6319 142.465 10.8279 142.827 9.37803C141.019 8.90661 141.014 7.39389 139.348 6.99007C137.533 7.78668 136.374 4.58575 136.834 3.69811C139.099 4.31953 136.542 2.19 137.327 1.37524C136.598 1.70311 135.396 2.32242 134.558 2.24956C133.719 2.1767 132.845 2.541 132.663 2.86887C132.48 3.19674 132.116 3.85248 131.751 4.21678C131.387 4.58108 130.877 5.96542 129.856 5.96542C128.836 5.96542 126.394 5.85613 126.103 6.29329C125.811 6.73044 125.775 7.96906 125.301 8.66123C124.827 9.3534 123.114 9.53555 121.766 9.57198C120.418 9.60841 117.101 10.3734 116.336 9.57198C115.571 8.77052 114.295 7.24046 113.311 7.60476C112.327 7.96906 111.38 8.29693 110.141 8.84338C108.902 9.38983 107.036 9.55432 105.954 10.3014C104.872 11.0484 99.7435 13.3668 98.79 13.8562C97.8366 14.3457 93.0692 16.3292 92.1416 16.6125C91.2139 16.8959 89.9254 16.2777 89.1008 16.4064C88.2762 16.5352 86.6785 17.9005 85.9827 18.1066C85.9086 18.7184 87.1383 19.6406 87.8607 19.1955C89.1864 18.8462 88.4708 20.6815 89.3232 20.6748C88.9597 21.0237 89.8747 22.6058 88.4734 22.9284C89.1618 23.8193 89.6567 25.0536 90.8195 25.404C91.528 26.5133 93.1677 26.5782 93.5567 27.8796C93.5479 29.14 94.2229 30.5586 93.2748 31.6247C92.8021 32.7224 91.4924 32.8085 90.6287 32.7227C89.7503 33.9007 88.5975 32.4444 87.6029 32.8528C86.766 33.1444 84.8222 33.0047 85.0845 34.264C85.8427 35.1797 86.6123 35.8699 87.8217 35.8275C88.2368 36.968 88.3372 38.2187 88.5714 39.4121C89.1799 40.676 89.2675 42.3676 90.3314 43.3125C90.5729 44.8346 92.3538 43.8891 92.5509 43.0429C93.0736 44.1687 94.8717 42.8936 94.8586 42.2248C95.9607 42.4704 97.0681 41.498 97.1976 42.9481C98.5233 42.8022 99.0233 41.9437 98.9647 40.7787C99.6529 40.7163 100.27 43.0278 100.741 41.7759C99.628 39.8951 101.906 41.0108 102.703 40.3386C103.512 39.3112 104.757 39.736 105.814 39.8135C106.724 39.5362 107.055 38.8912 108.155 39.0849C108.795 39.5249 109.686 39.2968 110.501 39.2152C111.117 39.4245 112.162 39.2056 112.717 39.4758C113.157 40.2495 114.375 39.7487 114.542 39.2152C115.014 38.9673 116.31 38.7187 116.758 39.2152C116.659 40.2386 117.535 40.128 117.67 41.0393C117.724 42.0737 118.803 41.1257 119.104 40.909C120.305 41.1878 119.898 39.9259 120.799 39.8666C121.507 40.0808 121.675 40.9115 122.493 41.0393C123.711 41.4531 123.388 40.1121 124.057 39.9969C124.416 39.6189 125.091 38.9726 125.622 39.0849C126.253 38.5935 126.75 38.2822 126.795 39.4758C126.472 40.6551 127.47 40.5484 128.313 40.5604C128.684 41.419 128.224 42.7231 127.968 43.6452C127.9 44.7095 126.397 44.3412 126.273 45.4693C125.247 45.6829 124.026 45.5829 123.015 45.8602C123.003 46.7553 121.469 47.1945 121.059 46.3813C121.512 45.1579 118.946 45.1772 119.626 46.251C119.911 47.513 118.6 46.9011 117.801 47.0328C117.057 45.9056 116.202 47.1171 115.324 46.7722C114.911 47.3291 114.055 47.9264 113.239 47.2934C113.189 46.4708 111.224 46.5026 111.544 47.554C110.888 48.6112 110.234 47.335 109.459 47.4237C108.544 47.3898 107.701 47.2709 108.025 46.1207C107.261 44.8357 107.108 45.5527 106.852 46.6419C105.826 47.5968 106.392 49.1699 105.679 50.2902C104.765 50.0683 104.026 50.46 103.202 50.2902C102.362 50.9521 101.073 51.1872 100.25 52.0263C99.3792 53.2739 97.8515 51.0102 98.2714 52.1269C98.3301 53.3807 98.3113 54.6747 98.3795 55.9567C97.9334 57.1762 98.027 58.4712 97.7602 59.7379C96.9489 60.9226 95.3244 61.3517 94.1476 62.1754C93.03 63.3126 91.722 62.032 90.4372 62.1545C89.1654 62.0071 87.7672 62.3402 88.7871 63.7903C89.0142 64.8675 87.2598 65.3634 87.4308 66.5769C86.717 68.3259 89.0886 67.5356 88.6495 68.4401C88.3357 69.4129 87.448 70.5084 86.4056 69.5912C85.26 68.1776 85.4844 70.6661 84.3026 70.4857C83.4077 70.6028 81.3778 69.574 81.3047 70.7463C82.3447 71.4053 81.2399 72.8885 80.2614 72.489C78.9786 72.3185 79.0228 71.1875 77.5219 71.5928C76.1261 70.8826 75.9154 72.3218 74.6502 72.4246C73.085 73.1538 72.9149 72.9471 73.0932 71.3978C72.0199 71.3194 70.9406 70.6975 71.1381 69.5737C70.2215 69.0454 68.9995 70.1529 69.0526 71.1372C69.9866 71.6278 71.1485 70.8621 71.6848 72.0938C72.9895 71.809 71.2036 73.912 72.705 73.9381C73.6695 73.6419 75.0367 73.5042 74.918 74.9157C76.0636 74.3136 77.1714 75.5294 77.9795 75.1339C79.2159 73.5215 78.1772 74.7773 79.7469 75.1274C80.8056 76.2001 82.3377 73.8266 81.9564 74.916C80.7294 75.6965 81.622 76.7332 81.3669 77.5959C81.7025 78.4272 81.0764 80.4278 82.4114 80.3883C83.5246 80.034 84.5958 81.5827 83.5206 82.3427C84.2308 82.8512 85.3214 81.5282 86.5184 81.6913C87.0935 82.3497 86.7249 84.2142 88.0199 83.8145C89.3049 84.336 89.6622 83.4036 90.5589 83.6456C90.7186 83.7324 90.8771 83.8211 91.0356 83.9101C91.6835 84.3046 92.3681 84.6362 93.1176 84.7837C93.6337 85.122 94.342 84.5431 94.6901 85.1374C94.8388 85.5298 95.3907 86.2575 94.8018 86.5001C94.0696 86.2474 93.6729 87.0654 93.6134 87.6658C93.3694 88.3758 93.583 89.1144 94.295 89.4287C94.7547 89.9487 95.4022 90.2883 95.7674 90.885C96.068 91.5825 96.4842 92.2912 96.4305 93.0774C96.3256 93.6363 96.3768 94.1827 96.3309 94.7491C96.2351 95.4662 96.7568 96.0628 97.4671 96.1539C97.9171 98.0905 96.5267 99.9667 97.0163 102.066C98.7144 103.695 96.8646 105.193 94.9469 105.402C92.7246 103.478 92.1079 106.642 90.8927 107.678C89.1653 105.628 86.0992 109.529 89.0425 109.371C89.7862 110.714 90.2892 114.393 87.6763 114.328C85.7187 114.988 83.8958 115.542 82.3061 117.351C80.4077 117.566 77.6536 116.305 75.8723 118.187C74.9948 117.587 72.9323 117.336 72.8103 116.04C72.9889 112.505 68.9973 111.463 66.5374 110.996C66.0282 109.282 64.7298 109.487 63.5782 109.704C62.8223 111.295 61.7008 111.054 61.2367 109.492C62.8675 107.878 59.8128 103.758 58.2023 106.857C59.2018 108.293 57.3908 110.738 55.3952 110.648C52.6667 112.172 57.7128 113.21 57.3048 115.439C59.4745 115.583 61.842 116.929 60.8257 119.567C62.6393 119.604 61.6608 120.951 60.4912 121.366C60.3394 123.698 58.4787 125.127 57.3763 127.229C56.9074 129.739 55.1762 130.931 53.5249 131.911C52.9691 134.364 54.5385 131.929 55.3667 132.636C56.3302 135.145 56.048 137.863 57.1315 140.304C53.9221 141.542 57.9551 146.016 55.6568 146.946C53.7709 148.092 54.1542 145.494 52.2738 146.885C51.9045 148.755 51.5208 145.521 51.2013 146.056C50.1846 148.445 45.8754 144.746 45.6072 148.532C46.6787 151.036 43.9273 151.17 43.1143 152.962C42.7857 152.842 42.55 152.68 42.2136 152.733C41.677 152.536 41.6193 152.73 41.2735 152.338C41.3221 152.097 41.3023 151.714 41.0073 151.651C40.7899 151.76 40.6927 152.013 40.6709 152.242C40.6762 153.04 40.4801 153.172 39.5953 153.223L39.6085 153.345C39.5395 154.083 40.1397 154.972 39.5672 155.561C39.2839 156.258 38.0989 156.336 38.1941 157.139C38.6101 158.04 37.5585 158.538 36.8781 158.792C36.2442 158.393 36.0072 157.609 35.4921 157.079C34.7803 156.971 33.8793 156.881 33.4744 156.136C33.0545 156.44 32.5988 156.788 32.0278 156.684C31.4305 156.312 30.8705 155.897 30.3132 155.45C29.5162 155.226 28.6529 155.382 27.847 155.175C27.2222 154.824 26.9292 155.303 27.1219 155.886C27.0258 156.414 27.6326 157.853 26.6158 157.465C25.8333 156.978 24.9989 156.391 24.6465 155.508C24.4311 154.815 23.6808 154.482 23.3281 153.993C23.4655 153.366 24.1073 152.606 23.6316 152.016C22.6169 151.466 23.4992 153.551 22.5417 153.611C21.8203 154.177 21.0409 153.824 20.8155 152.983C19.9155 152.472 20.735 151.746 20.9905 151.07C21.3549 150.405 21.8322 148.77 20.775 148.612C20.3763 148.024 20.4788 146.856 20.1744 146.057C20.0205 146.333 19.7441 146.008 19.524 145.981C18.8237 145.634 18.0226 145.658 17.3148 145.341C16.5584 145.139 15.7663 144.931 14.9841 144.902C14.5243 145.647 13.8759 144.728 13.2266 144.878C12.2217 144.571 12.2932 145.624 12.3538 146.317H11.0963C10.4351 146.082 9.98431 146.937 10.2495 147.458C11.0178 148.146 9.58862 147.545 9.37568 148.043C9.04267 148.611 9.09481 149.332 8.92646 149.966C8.46909 150.57 9.74083 150.976 9.24505 151.403C8.43604 151.374 7.78519 150.314 6.99036 151.006C6.04256 151.385 7.42035 152.517 6.74912 152.962C5.94893 152.585 5.05942 152.445 4.18092 152.444C3.31046 152.543 3.08771 152.17 2.23242 152.135" stroke="#A8A9A9" stroke-width="2.551" stroke-miterlimit="10" stroke-linecap="square" stroke-linejoin="bevel"/>
</svg>
