<svg width="655" height="511" viewBox="0 0 655 511" fill="none" xmlns="http://www.w3.org/2000/svg">
<path d="M142.328 0.375244C141.599 0.703114 140.396 1.32242 139.558 1.24956C138.72 1.1767 137.845 1.541 137.663 1.86887C137.481 2.19674 137.116 2.85248 136.752 3.21678C136.387 3.58108 135.877 4.96542 134.857 4.96542C133.836 4.96542 131.395 4.85613 131.103 5.29329C130.812 5.73045 130.775 6.96906 130.301 7.66123C129.828 8.3534 128.115 8.53555 126.766 8.57198C125.418 8.60841 122.102 9.37344 121.336 8.57198C120.571 7.77052 119.295 6.24046 118.311 6.60476C117.327 6.96906 116.38 7.29693 115.141 7.84338C113.902 8.38983 112.037 8.55468 110.954 9.30172C109.872 10.0488 104.743 12.3665 103.79 12.8559C102.836 13.3454 98.069 15.3287 97.1413 15.6121C96.2136 15.8954 94.9252 15.2772 94.1006 15.406C93.276 15.5348 91.6793 16.9008 90.9835 17.1068C90.9095 17.7187 92.139 18.6403 92.8615 18.1952C94.1871 17.8459 93.4715 19.6818 94.3238 19.6751C93.9603 20.024 94.8755 21.6055 93.4742 21.9281C94.1626 22.819 94.6574 24.0538 95.8203 24.4042C96.5287 25.5135 98.1679 25.5778 98.5569 26.8792C98.5481 28.1396 99.2237 29.5584 98.2756 30.6246C97.8029 31.7222 96.4926 31.8089 95.6289 31.7232C94.7505 32.9012 93.5976 31.4446 92.603 31.853C91.766 32.1445 89.8227 32.0042 90.085 33.2635C90.8432 34.1792 91.6123 34.8701 92.8216 34.8277C93.2368 35.9682 93.3379 37.2182 93.5722 38.4115C94.1806 39.6755 94.2677 41.368 95.3317 42.3129C95.5731 43.835 97.3543 42.8893 97.5513 42.0431C98.074 43.169 99.8717 41.8934 99.8586 41.2246C100.961 41.4702 102.068 40.4985 102.198 41.9486C103.524 41.8028 104.024 40.9438 103.965 39.7788C104.654 39.7164 105.271 42.0279 105.742 40.7761C104.629 38.8953 106.906 40.0104 107.703 39.3382C108.513 38.3108 109.757 38.7359 110.814 38.8134C111.724 38.5361 112.055 37.8911 113.156 38.0848C113.795 38.5248 114.687 38.2974 115.502 38.2157C116.118 38.425 117.162 38.2051 117.717 38.4753C118.157 39.249 119.375 38.7493 119.543 38.2157C120.014 37.9679 121.311 37.7193 121.759 38.2157C121.659 39.2392 122.536 39.1282 122.671 40.0395C122.725 41.0739 123.804 40.1253 124.105 39.9086C125.306 40.1874 124.899 38.9261 125.799 38.8669C126.508 39.0811 126.676 39.9117 127.494 40.0395C128.712 40.4533 128.388 39.1119 129.058 38.9967C129.416 38.6186 130.091 37.9725 130.621 38.0848C131.253 37.5935 131.751 37.2817 131.796 38.4753C131.472 39.6546 132.47 39.5482 133.314 39.5602C133.684 40.4188 133.225 41.7233 132.969 42.6454C132.9 43.7097 131.398 43.341 131.274 44.4691C130.248 44.6827 129.026 44.5824 128.015 44.8596C128.003 45.7547 126.47 46.1942 126.06 45.381C126.512 44.1575 123.946 44.1774 124.626 45.2512C124.912 46.5132 123.6 45.9016 122.801 46.0333C122.057 44.9062 121.203 46.1175 120.325 45.7726C119.911 46.3295 119.055 46.9259 118.239 46.2929C118.189 45.4703 116.224 45.5023 116.544 46.5536C115.888 47.6108 115.234 46.3351 114.459 46.4238C113.544 46.3899 112.701 46.2705 113.025 45.1203C112.261 43.8353 112.108 44.5525 111.852 45.6417C110.826 46.5966 111.393 48.1702 110.679 49.2904C109.766 49.0685 109.027 49.4603 108.203 49.2904C107.363 49.9524 106.073 50.1874 105.25 51.0265C104.379 52.2741 102.852 50.0099 103.272 51.1267C103.33 52.3804 103.312 53.6744 103.38 54.9564C102.934 56.1759 103.027 57.4715 102.76 58.7383C101.949 59.9229 100.325 60.3519 99.148 61.1757C98.0304 62.3129 96.7224 61.0315 95.4376 61.1541C94.1658 61.0066 92.7676 61.3399 93.7874 62.79C94.0145 63.8672 92.26 64.3633 92.431 65.5769C91.7172 67.3259 94.0887 66.5359 93.6496 67.4405C93.3358 68.4133 92.4484 69.5087 91.4061 68.5915C90.2604 67.1778 90.4844 69.6666 89.3026 69.4863C88.4077 69.6033 86.3782 68.5735 86.3051 69.7458C87.345 70.4048 86.2404 71.8883 85.2619 71.4888C83.9791 71.3183 84.0227 70.1876 82.5219 70.5928C81.126 69.8826 80.916 71.3222 79.6508 71.425C78.0856 72.1542 77.9157 71.9475 78.094 70.3981C77.0207 70.3197 75.9411 69.697 76.1386 68.5732C75.2221 68.045 74.0002 69.1532 74.0533 70.1375C74.9874 70.628 76.149 69.8621 76.6852 71.0937C77.99 70.809 76.2042 72.9119 77.7056 72.938C78.6701 72.6419 80.0371 72.5044 79.9184 73.9159C81.0641 73.3138 82.1716 74.53 82.9797 74.1345C84.2161 72.522 83.1774 73.7776 84.7472 74.1277C85.8059 75.2004 87.3378 72.8265 86.9566 73.9159C85.7295 74.6965 86.6228 75.7332 86.3678 76.5958C86.7033 77.4271 86.0771 79.4279 87.4121 79.3884C88.5253 79.0341 89.5965 80.5831 88.5213 81.3431C89.2316 81.8516 90.3218 80.5277 91.5188 80.6908C92.0938 81.3492 91.7248 83.2147 93.0198 82.8151C94.3048 83.3366 94.6627 82.4034 95.5595 82.6455C95.7191 82.7322 95.877 82.8206 96.0355 82.9096C96.6834 83.3041 97.3689 83.6363 98.1185 83.7839C98.6345 84.1222 99.3419 83.5437 99.6901 84.1379C99.8388 84.5304 100.391 85.258 99.8017 85.5006C99.0695 85.2479 98.6734 86.0649 98.6139 86.6653C98.3699 87.3753 98.5828 88.1145 99.2949 88.4287C99.7545 88.9487 100.402 89.288 100.767 89.8848C101.068 90.5822 101.485 91.2913 101.431 92.0774C101.326 92.6363 101.377 93.1822 101.331 93.7486C101.235 94.4657 101.757 95.0624 102.468 95.1535C102.918 97.09 101.527 98.9669 102.017 101.066C103.715 102.696 101.865 104.192 99.9475 104.402C97.7252 102.478 97.1084 105.642 95.8931 106.678C94.1657 104.628 91.0993 108.528 94.0425 108.371C94.7862 109.714 95.2899 113.393 92.677 113.329C90.7194 113.988 88.8959 114.542 87.3062 116.351C85.4078 116.567 82.6541 115.305 80.8728 117.187C79.9953 116.587 77.9325 116.335 77.8104 115.04C77.989 111.504 73.9975 110.464 71.5376 109.996C71.0284 108.283 69.7304 108.487 68.5789 108.704C67.823 110.295 66.7015 110.054 66.2374 108.491C67.8682 106.877 64.8129 102.758 63.2023 105.857C64.2018 107.293 62.3906 109.738 60.3951 109.648C57.6665 111.172 62.7129 112.211 62.3049 114.44C64.4746 114.584 66.8425 115.93 65.8263 118.568C67.6398 118.604 66.6611 119.952 65.4914 120.366C65.3397 122.699 63.4791 124.127 62.3767 126.228C61.9077 128.739 60.1764 129.932 58.5251 130.912C57.9693 133.365 59.5384 130.928 60.3666 131.636C61.3302 134.144 61.0483 136.863 62.1318 139.304C58.9225 140.542 62.9552 145.016 60.657 145.946C58.7711 147.092 59.1549 144.494 57.2746 145.884C56.9052 147.754 56.5213 144.521 56.2018 145.057C55.1851 147.445 50.876 143.746 50.6078 147.533C51.6793 150.037 48.9278 150.17 48.1148 151.963C47.7862 151.842 47.5504 151.68 47.214 151.734C46.6773 151.536 46.6191 151.73 46.2733 151.338C46.3219 151.097 46.303 150.714 46.0079 150.651C45.7906 150.76 45.6926 151.013 45.6708 151.242C45.6761 152.039 45.4806 152.172 44.5957 152.222L44.6083 152.345C44.5393 153.083 45.1398 153.972 44.5673 154.562C44.2841 155.258 43.0997 155.336 43.195 156.139C43.6109 157.04 42.5589 157.538 41.8785 157.792C41.2446 157.393 41.0075 156.61 40.4925 156.079C39.7806 155.972 38.8794 155.881 38.4744 155.136C38.0545 155.44 37.5991 155.788 37.0281 155.684C36.4308 155.312 35.8703 154.897 35.313 154.45C34.5159 154.225 33.6532 154.382 32.8474 154.174C32.2225 153.824 31.9293 154.303 32.1219 154.886C32.0258 155.413 32.633 156.853 31.6163 156.465C30.8337 155.977 29.9996 155.39 29.6472 154.508C29.4318 153.815 28.6811 153.482 28.3284 152.993C28.4657 152.366 29.1082 151.606 28.6325 151.016C27.6177 150.466 28.5001 152.551 27.5426 152.61C26.8211 153.176 26.0414 152.824 25.8161 151.983C24.9161 151.472 25.7348 150.747 25.9903 150.07C26.3547 149.406 26.8322 147.77 25.7751 147.613C25.3763 147.024 25.4794 145.857 25.1749 145.057C25.0211 145.333 24.7448 145.007 24.5246 144.98C23.8243 144.634 23.023 144.658 22.3152 144.341C21.5588 144.138 20.7662 143.93 19.984 143.901C19.5243 144.647 18.876 143.728 18.2268 143.878C17.2218 143.571 17.2938 144.624 17.3544 145.317H16.0971C15.4359 145.083 14.9847 145.937 15.2498 146.458C16.0182 147.146 14.5892 146.545 14.3763 147.043C14.0433 147.611 14.0948 148.332 13.9264 148.966C13.4691 149.57 14.7411 149.976 14.2453 150.403C13.4363 150.374 12.7852 149.314 11.9904 150.007C11.0426 150.385 12.4202 151.518 11.749 151.963C10.9488 151.586 10.0593 151.445 9.18084 151.443C8.31038 151.543 8.08755 151.17 7.23226 151.135C7.2838 152.268 7.12929 154.587 6.2016 155.051C5.2739 155.515 4.75867 155.927 4.75867 155.927C4.75867 155.927 4.08927 157.266 4.45004 157.626C4.81081 157.987 5.42945 159.121 5.42945 159.945C5.42945 160.77 6.25347 162.675 5.73808 163.705C5.22269 164.736 2.95502 165.2 2.90348 165.406C2.85193 165.612 2.43945 166.951 1.92406 167.106C1.40868 167.261 1.15078 167.673 1.15078 167.673C1.15078 167.673 1.6668 167.416 1.95026 168.189C2.23372 168.961 1.58963 169.295 2.0277 169.862C2.46578 170.429 2.92984 170.996 2.59485 171.898C2.25984 172.799 1.61548 173.572 1.20317 173.495C0.790856 173.418 0.32625 172.979 0.32625 173.185C0.32625 173.391 -0.240654 175.323 0.120117 175.684C0.480883 176.045 2.31064 176.895 2.82603 177.539C3.34142 178.183 3.2383 179.522 3.2383 180.089C3.2383 180.655 2.36234 181.043 2.69734 181.661C3.03235 182.279 3.05829 182.563 3.67676 183.336C4.29522 184.108 5.12 185.344 4.8623 186.117C4.60461 186.89 3.95973 187.534 4.26896 187.895C4.57819 188.256 5.1967 188.95 5.17093 189.646C5.14516 190.341 5.01654 191.011 5.73808 191.706C6.45962 192.402 6.61402 193.433 6.48517 193.458C6.35632 193.484 4.91355 193.691 4.91355 193.846C4.91355 194 5.27412 195.184 5.45451 196.086C5.63489 196.988 5.58387 198.225 5.97041 198.611C6.35695 198.997 7.95422 200.878 8.57269 201.084C9.19115 201.29 11.845 201.521 12.6953 201.109C13.5457 200.697 14.5 200.569 14.8865 199.976C15.273 199.384 15.35 199.307 15.35 199.307C15.35 199.307 15.273 200.723 14.8865 201.341C14.5 201.959 14.0621 202.551 13.0313 202.216C12.0005 201.882 11.0466 201.882 10.5828 202.114C10.1189 202.346 8.80479 202.604 8.23787 203.377C7.67094 204.149 6.89763 204.123 7.67072 205.025C8.44379 205.927 8.75276 207.781 8.83007 208.76C8.90738 209.739 8.59888 211.207 8.59888 211.207C8.59888 211.207 10.2995 213.422 10.9438 214.118C11.588 214.813 12.4123 215.457 12.9277 215.354C13.443 215.251 14.6542 214.144 15.35 214.066C16.0458 213.989 17.5668 214.684 17.876 214.942C18.1852 215.2 19.3701 217.287 19.7824 217.75C20.1947 218.214 19.4989 218.342 18.8805 217.698C18.262 217.054 16.845 215.741 16.2007 215.819C15.5565 215.896 14.1389 216.746 13.4174 217.004C12.6958 217.261 11.0212 216.592 11.0212 216.592C11.0212 216.592 10.2993 219.322 10.5828 220.223C10.8662 221.125 9.83508 224.035 10.1443 224.705C10.4535 225.375 10.7889 225.994 10.7889 225.994L11.5109 225.89C11.5109 225.89 11.5881 226.767 11.4335 227.308C11.2789 227.849 10.4021 228.003 10.4279 228.106C10.4537 228.209 10.5318 228.827 10.8925 229.213C11.2533 229.6 10.9176 231.197 11.1237 231.197C11.3299 231.197 11.4327 229.831 12.0769 230.217C12.7212 230.604 13.3657 231.222 13.7522 231.892C14.1388 232.562 14.3971 234.287 14.1394 234.983C13.8817 235.678 13.6489 236.323 13.5973 236.941C13.5458 237.559 13.3915 237.946 13.5461 237.998C13.7007 238.049 14.7575 237.302 15.0152 237.508C15.2729 237.714 15.4536 238.461 14.9639 238.873C14.4743 239.285 13.8809 239.956 13.8809 239.956L13.2112 239.595C13.2112 239.595 13.005 240.882 12.9277 241.346C12.8504 241.809 13.1076 242.686 13.1076 242.686C13.1076 242.686 12.3603 243.356 11.9995 244.077C11.6387 244.798 11.356 245.983 11.356 245.983C11.356 245.983 12.2833 244.978 12.8502 244.824C13.4172 244.669 13.8296 246.318 13.8296 246.318C13.8296 246.318 13.7776 247.451 13.3137 247.657C12.8499 247.863 12.4384 248.327 12.4642 248.43C12.4899 248.533 12.4127 250.053 12.7477 249.924C13.0827 249.795 14.7317 248.095 15.0152 247.374C15.2986 246.652 16.0203 244.412 16.2007 243.665C16.3811 242.918 16.6901 241.372 17.154 241.166C17.6178 240.96 18.2615 240.882 18.3646 240.96C18.4676 241.037 18.7253 241.526 19.8849 241.835C21.0445 242.144 22.3596 241.218 22.7719 240.702C23.1842 240.187 24.7046 239.028 24.7046 239.028C24.7046 239.028 25.0132 236.348 24.8071 235.472C24.6009 234.597 24.6526 233.129 24.8845 232.588C25.1164 232.047 26.2762 229.728 26.2762 229.728C26.2762 229.728 25.9151 232.511 26.1213 233.516C26.3274 234.52 26.4822 235.807 26.4049 235.962C26.3276 236.117 26.4828 236.426 26.9982 236.786C27.5136 237.147 27.7709 237.43 28.0801 238.177C28.3893 238.924 27.8223 239.697 28.0027 240.521C28.1831 241.346 28.8017 241.707 29.3944 241.269C29.987 240.831 31.069 241.011 31.5844 240.419C31.7831 240.191 32.0895 239.966 32.3964 239.775C32.8855 239.47 33.3774 239.25 33.4407 239.234C33.5438 239.208 32.0999 240.779 31.4557 240.934C30.8114 241.088 30.6051 240.96 30.2701 241.449C29.9351 241.939 29.265 242.556 28.8785 242.865C28.4919 243.175 26.5085 243.587 26.5085 243.587C26.5085 243.587 25.9934 244.283 25.5553 244.026C25.1172 243.768 24.1374 243.407 24.1374 243.407C24.1374 243.407 24.1885 244.566 23.9051 244.875C23.6216 245.184 22.617 246.576 22.617 246.576C22.617 246.576 23.158 246.022 23.814 246.496C24.4699 246.97 25.3081 247.771 24.5064 248.317C23.7046 248.864 22.83 248.937 22.502 248.791C22.174 248.645 21.7367 248.354 21.4816 248.645C21.2265 248.937 20.2061 249.41 20.2061 249.41C20.2061 249.41 20.3154 250.358 20.6798 250.54C21.0443 250.722 21.846 251.487 21.846 252.215V253.126C21.846 253.126 23.3402 253.563 23.9962 253.345C24.6522 253.126 26.693 252.252 26.693 252.252C26.693 252.252 25.9641 253.673 26.1099 254.365C26.2557 255.057 26.1828 257.899 25.8548 257.862C25.5268 257.826 24.1784 256.842 23.9597 256.478C23.7411 256.113 23.7775 254.838 23.5224 255.093C23.2673 255.348 22.2105 256.405 21.9189 256.951C21.6274 257.498 21.2265 258.154 21.0443 257.862C20.8621 257.571 20.1696 256.915 19.5865 256.915C19.0035 256.915 17.2906 256.806 17.2906 256.806C17.2906 256.806 16.6346 258.664 16.8897 259.684C17.1448 260.704 17.2906 263.909 16.8169 264.602C16.3431 265.294 16.3066 265.44 16.3066 265.44C16.3066 265.44 16.8533 266.314 16.9262 267.225C16.9991 268.135 16.5618 268.609 17.3271 269.374C18.0924 270.139 18.8941 271.232 19.295 272.106C19.6959 272.981 20.5341 275.021 20.9714 275.603C21.4087 276.186 21.7731 277.971 21.7731 277.971L21.1901 278.591C21.1901 278.591 20.6434 279.064 20.5705 280.012C20.4976 280.959 19.5137 283.8 19.5137 283.8C19.5137 283.8 20.4976 285.804 20.4976 286.751C20.4976 287.698 19.8416 288.463 20.4976 288.864C21.1536 289.265 21.7731 289.374 21.8096 289.92C21.846 290.467 21.846 291.086 21.6638 291.123C21.4816 291.159 20.7527 290.977 21.19 292.216C21.6274 293.454 22.7571 293.09 23.9233 293.928C25.0895 294.766 24.397 296.332 25.1624 296.624C25.9277 296.915 26.5472 297.206 26.6201 297.389C26.693 297.571 26.365 298.991 26.8023 299.028C27.2396 299.064 28.2965 297.316 29.0254 298.008C29.7542 298.7 29.6084 299.429 29.8635 299.501C30.1187 299.574 31.6857 299.647 31.8679 299.538C32.0501 299.429 32.7061 298.554 32.7061 298.554C32.7061 298.554 33.6537 298.7 33.5808 299.137C33.5079 299.574 32.123 300.267 32.4875 300.558C32.8519 300.849 33.9452 301.25 34.2732 302.052C34.6012 302.853 34.0545 304.383 33.8723 304.529C33.6901 304.675 34.6376 303.181 33.6537 302.999C32.6697 302.817 31.6128 302.015 30.884 301.724C30.1551 301.432 28.3329 301.032 27.8956 301.068C27.4583 301.104 26.5472 301.578 25.9641 301.214C25.381 300.849 25.3081 301.032 25.3081 300.74C25.3081 300.449 25.5632 298.481 25.3446 298.445C25.1259 298.409 22.502 298.044 22.5384 298.226C22.5749 298.409 23.3402 300.303 23.4131 300.886C23.486 301.469 22.0282 303.691 22.3927 303.582C22.7571 303.472 23.486 302.234 24.5428 303.108C25.5997 303.982 26.5472 306.132 26.7294 307.225C26.9116 308.318 26.1099 310.285 25.6726 310.43C25.2352 310.576 26.4743 312.216 26.4743 312.216C26.4743 312.216 27.4218 312.981 27.4583 313.928C27.4947 314.875 27.2032 315.968 27.349 316.223C27.4947 316.478 28.5151 315.822 28.8067 316.915L29.244 318.554C29.244 318.554 28.0778 319.356 28.5516 319.757C29.0254 320.157 29.1347 320.048 29.2076 320.303C29.2805 320.558 29.3533 321.614 29.3533 321.614C29.3533 321.614 32.123 321.469 32.7061 321.396C33.2892 321.323 35.9496 321.469 36.1682 321.578C36.3869 321.687 33.9088 321.505 32.9977 321.797C32.0866 322.088 30.1551 323.254 30.1187 323.472C30.0822 323.691 30.3738 325.549 30.8111 325.695C31.2484 325.84 31.9408 326.059 31.9408 326.059C31.9408 326.059 31.7222 327.698 32.123 328.318C32.5239 328.937 33.2528 329.046 33.7265 330.03C34.2003 331.013 34.6376 333.418 34.9656 334.11C35.2936 334.802 35.0021 335.713 35.0021 335.713C35.0021 335.713 36.0225 336.15 36.4233 337.134C36.8242 338.117 36.97 339.574 37.5531 340.777C38.1362 341.979 38.865 343.181 38.3548 343.764C37.8446 344.347 36.9335 344.019 36.8971 344.747C36.8607 345.476 37.0429 346.095 37.6624 346.824C38.282 347.553 38.3184 348.609 38.3184 349.666C38.3184 350.722 39.0108 352.361 39.7032 352.835C40.3957 353.309 41.8898 353.636 41.8898 353.636C41.8898 353.636 44.368 352.762 44.6231 352.835C44.8782 352.908 42.9103 353.891 41.8534 354.11C40.7965 354.329 39.0108 354.11 38.9379 354.802C38.865 355.494 39.3388 356.697 39.8126 357.17C40.2863 357.644 41.2703 357.862 41.7441 359.028C42.2178 360.194 43.2018 362.525 42.9467 363.035C42.6916 363.545 42.6916 365.258 42.6916 365.258C42.6916 365.258 42.9831 367.298 42.1814 367.625C41.3796 367.953 40.6872 367.006 41.2703 368.026C41.8534 369.046 41.8534 369.411 41.8534 369.411C41.8534 369.411 43.056 368.755 43.9671 369.593C44.8782 370.431 44.9875 370.977 44.8417 371.997C44.696 373.017 45.4613 374.329 45.935 374.511C46.4088 374.693 47.2106 374.948 47.2106 374.948C47.2106 374.948 46.0808 376.223 46.2995 376.405C46.5181 376.587 49.7616 376.551 49.7616 376.551C49.7616 376.551 48.2674 376.879 48.1216 377.462C47.9759 378.044 47.903 378.372 47.903 378.372C47.903 378.372 47.2834 377.134 46.4088 377.207C45.5342 377.279 45.4977 377.352 45.4977 377.352C45.4977 377.352 45.3884 375.895 45.2426 375.895C45.0969 375.895 42.8009 375.822 42.8009 375.822C42.8009 375.822 43.8942 376.66 43.9307 377.243C43.9671 377.826 43.9671 378.554 43.9671 378.554C43.9671 378.554 44.2951 377.534 44.9875 378.227C45.6799 378.919 45.8257 381.287 46.2266 381.651C46.6275 382.015 47.247 382.161 47.2834 382.817C47.3199 383.473 46.5546 384.165 46.5546 384.165C46.5546 384.165 46.6275 384.784 46.7732 384.784C46.919 384.784 47.575 384.092 47.7572 385.112C47.9394 386.132 49.0327 388.937 49.0327 389.556C49.0327 390.176 49.3402 390.883 49.3402 390.883C49.3402 390.883 50.4991 391.268 50.4734 392.144C50.4476 393.02 50.7566 396.575 50.1124 396.73C49.4681 396.884 48.6696 395.982 48.5407 396.163C48.4119 396.343 48.0513 398.146 48.2059 398.223C48.3605 398.301 50.0872 398.044 50.216 398.688C50.3448 399.332 48.9277 400.516 48.9792 400.645C49.0307 400.773 49.4427 401.444 49.4427 401.444C49.4427 401.444 49.5976 399.976 50.4996 400.697C51.4015 401.418 51.3246 403.607 50.7319 403.71C50.1392 403.814 49.6231 403.556 49.855 403.968C50.0869 404.38 50.3187 406.287 50.1898 406.982C50.0609 407.678 49.7001 408.399 49.7001 408.399C49.7001 408.399 51.8654 408.605 51.8138 408.708C51.7623 408.811 50.1128 409.352 50.3447 409.661C50.5766 409.97 50.5508 412.083 50.9631 412.933C51.3754 413.783 51.2979 414.684 51.504 414.812C51.7102 414.941 53.2305 415.354 53.2305 415.354C53.2305 415.354 51.7875 418.497 51.9163 419.424C52.0452 420.352 52.38 421.743 52.947 422.619C53.5139 423.495 53.5144 423.932 53.8751 424.731C54.2359 425.529 54.2612 427.718 54.0551 427.744C53.8489 427.77 53.5403 428.826 53.7464 428.852C53.9526 428.877 54.7509 429.161 54.7509 429.161L55.8078 429.857C55.8078 429.857 55.2149 430.938 54.4161 431.067C53.6172 431.196 53.0245 431.351 53.308 431.995C53.5914 432.639 54.9829 433.514 55.0345 433.617C55.086 433.72 55.4469 434.751 55.3181 434.777C55.2742 434.786 55.0443 434.825 54.7475 434.891C54.1736 435.02 53.3489 435.253 53.128 435.575C52.793 436.065 52.2002 436.452 52.8445 437.482C53.4887 438.513 55.0863 441.191 55.1894 442.17C55.2924 443.149 55.937 443.587 56.2462 444.643C56.5555 445.699 57.0966 450.388 57.3543 450.748C57.612 451.109 58.8227 450.902 59.0546 451.804C59.2866 452.705 58.978 454.483 59.4418 455.024C59.9057 455.565 60.3175 457.703 60.6525 458.605C60.9875 459.506 61.9415 461.696 61.8642 462.546C61.7869 463.396 62.2617 463.108 62.6261 463.983C62.9905 464.857 63.3185 468.354 63.7194 469.265C64.1203 470.176 64.3389 471.196 64.266 471.852C64.1932 472.507 63.9927 472.689 64.2114 472.835C64.4301 472.981 65.1225 472.817 64.8674 473.473C64.6123 474.128 63.7012 473.91 63.7923 474.183C63.8834 474.456 63.4461 474.912 63.9016 475.039C64.3572 475.167 65.5416 475.622 66.0518 476.26C66.562 476.897 66.5438 479.192 66.5802 479.848C66.6167 480.504 66.9082 480.923 67.382 481.487C67.8557 482.052 67.9833 482.271 67.9833 482.271C67.9833 482.271 67.5642 482.671 67.7464 482.963C67.9286 483.254 68.2748 484.22 68.4206 484.292C68.5664 484.365 69.0037 483.946 69.2588 484.22C69.5139 484.493 70.3703 484.256 70.7165 484.493C71.0627 484.73 71.3543 485.385 71.828 485.24C72.3018 485.094 72.6116 485.331 72.8667 485.786C73.1218 486.241 74.2333 486.278 74.3791 486.351C74.5249 486.424 75.3995 488.281 75.6364 488.755C75.8733 489.229 76.3288 490.868 76.4746 490.886C76.6203 490.904 76.6386 490.431 77.1123 490.613C77.5861 490.795 78.1145 491.979 78.1874 492.653C78.2603 493.327 78.8616 494.128 79.1714 494.62C79.4811 495.112 79.7363 495.841 79.6634 496.241C79.5905 496.642 80.538 497.243 80.4651 497.717C80.3922 498.19 80.4833 499.192 80.3376 499.138C80.1918 499.083 79.39 498.955 79.5723 499.174C79.7545 499.393 80.4104 500.504 81.1211 500.832C81.3705 500.947 81.5839 501.037 81.7725 501.132C82.1329 500.935 82.4336 501.014 82.8305 501.034C83.8528 501.922 85.129 500.868 86.1685 501.681C86.5741 500.431 88.1046 500.257 89.2286 500.758C90.1069 501.924 90.8341 500.742 91.6851 500.478C92.4032 499.733 93.8888 500.56 93.9571 499.214C93.7576 498.098 94.9772 498.11 94.9194 497.07C95.6091 496.942 95.4622 496.35 95.7713 495.793C96.7096 494.769 96.9586 496.12 97.2085 496.783C98.706 497.367 96.7579 498.685 97.8213 499.33C99.0292 499.886 100.151 499.32 101.302 499.765C103.032 499.328 102.747 501.356 103.641 502.193C102.818 503.288 104.438 503.352 104.577 504.292C104.51 505.439 105.208 506.474 104.464 507.503C104.673 508.987 106.096 509.385 107.01 510.251C107.801 510.151 108.762 510.817 109.457 510.425C109.912 508.814 111.755 509.307 113.092 508.968C114.274 508.21 115.784 507.929 116.805 507.013C116.512 506.636 116.008 506.691 115.594 506.575C115.157 506.39 114.272 505.929 114.639 505.374C115.246 505.357 115.867 505.596 116.46 505.355C117.275 505.174 117.899 504.43 117.949 503.6C117.769 503.235 118.255 503.027 117.907 502.705C117.419 502.441 117.853 501.815 117.292 501.698C117.213 501.146 117.889 501.5 118.111 501.262C118.205 500.509 119.206 500.722 119.525 500.248C119.686 499.718 119.992 499.025 120.669 499.181C121.484 499.084 122.379 499.245 123.106 498.784C123.856 498.415 123.875 497.541 124.105 496.85C124.555 496.551 125.152 496.037 125.73 496.285C125.353 497.778 125.856 501.15 128.101 499.231C129.576 500.082 132.461 499.988 132.967 497.502C134.896 499.101 137.261 496.252 136.431 494.356C135.342 493.162 139.838 491.347 136.349 491.326C134.142 491.845 134.075 490.627 135.748 489.611C136.439 486.44 137.282 489.622 138.216 490.986C140.451 491.883 138.747 489.546 138.807 488.865C136.788 485.997 141.41 484.725 141.903 481.964C141.879 479.775 144.86 477.273 143.61 475.455C141.389 472.95 138.061 477.984 136.873 475.668C135.26 474.31 138.246 472.515 139.885 471.743C141.623 468.213 146.004 475.031 146.262 470.578C145.699 468.218 145.257 465.7 147.587 464.094C146.9 462.689 147.184 460.854 145.529 459.929C144.266 460.822 143.245 459.445 141.778 459.201C139.513 459.392 141.004 455.699 138.531 457.441C137.745 455.872 136.486 456.166 135.001 456.227C136.521 457.784 131.889 458.871 133.189 456.499C135.964 456.493 132.628 454.351 133.692 453.979C132.538 453.973 132.126 452.194 133.357 452.283C132.034 451.134 133.336 446.772 134.59 449.201C134.877 452.164 136.943 447.537 135.465 447.216C133.117 448.281 134.088 445.29 133.864 443.838C132.483 443.034 128.83 443.341 130.712 440.333C130.045 437.159 129.054 442.553 128.046 441.097C125.585 439.199 129.533 440.235 129.583 438.689C128.315 438.281 128.041 435.137 129.61 436.499C129.29 438.919 130.674 436.037 131.376 437.655C130.801 439.551 133.292 439.77 132.483 437.743C131.591 434.801 134.092 435.894 135.81 435.172C134.908 436.307 137.37 438.055 138.213 436.932C137.461 433.823 140.094 433.362 141.833 431.779C144.502 432.097 144.611 429.954 143.678 428.109C145.101 424.774 145.233 430.846 147.392 429.284C149.799 428.653 151.275 429.316 150.483 432.037C152.821 432.281 151.231 433.756 151.393 434.828C153.695 436.442 156.355 433.762 158.217 433.527C157.907 433.418 157.579 432.762 157.415 432.307C157.251 431.851 157.47 431.141 157.925 430.886C158.381 430.631 159.092 431.232 159.656 431.396C160.221 431.56 160.185 431.05 160.64 431.068C161.096 431.086 161.497 431.214 161.843 430.904C162.189 430.595 161.205 429.757 160.841 429.575C160.476 429.392 159.729 429.247 159.073 428.518C158.995 428.158 159.448 427.569 160.015 427.025C162.366 426.054 161.308 424.402 161.898 422.307C163.512 422.723 165.372 422.544 166.726 421.67C167.189 420.644 168.44 420.617 168.858 419.872C170.086 420.367 170.702 419.63 171.871 419.461C172.815 419.034 174.559 419.509 174.677 418.153C176.51 418.242 178.321 418.238 180.151 418.153C179.127 416.995 179.651 415.462 179.426 414.073C179.606 413.132 178.788 411.616 179.712 411.141C180.683 410.784 181.224 409.968 181.846 409.684C182.815 409.604 183.884 409.883 183.584 408.206C184.039 406.924 182.023 407.616 181.491 406.64C180.738 406.057 179.833 405.158 181.324 404.602C182.47 404.843 182.577 405.973 183.54 404.993C184.45 405.086 185.447 406.009 186.036 404.751C186.427 403.991 188.51 404.386 188.623 405.013C188.523 406.611 189.802 404.767 190.393 404.733C191.575 405.032 192.643 403.91 193.707 404.082C193.854 405.051 193.22 406.785 194.574 407.019C196.037 406.611 195.86 408.412 197.226 408.381C196.617 409.854 198.293 410.565 199.473 410.637C200.266 411.032 201.987 409.15 201.267 410.856C200.469 412.144 200.884 412.909 202.424 412.55C203.381 412.458 205.004 413.013 204.917 411.508C205.223 410.294 206.483 410.845 207.34 410.957C208.356 410.587 209.259 409.465 209.248 408.278C209.319 407.28 208.635 406.321 208.771 405.211C208.304 403.761 209.19 403.245 210.521 403.56C211.979 403.392 213.468 403.936 214.823 403.299C215.346 402.252 216.572 402.184 217.559 401.866C218.588 401.981 219.728 402.814 220.643 402.605C221.311 401.753 222.08 401.179 223.243 401.125C223.334 401.88 225.17 401.609 225.177 402.935C225.142 404.568 225.719 404.408 226.89 404.025C227.781 403.62 228.211 401.884 229.301 402.908C230.406 402.7 232.063 403.216 231.446 401.526C231.381 400.627 231.056 398.767 232.564 399.349C233.527 399.555 235.101 399.242 234.672 400.72C234.456 402.007 234.934 402.852 236.329 402.517C237.144 402.828 237.31 404.421 238.389 403.409C239.507 403.482 240.753 402.608 239.326 401.866C239.313 400.495 239.618 399.14 239.71 397.778C239.815 396.094 237.964 398.438 237.372 397.045C237.607 396.052 238.434 394.908 239.563 395.07C240.925 394.938 239.777 393.244 240.097 392.462C239.921 391.126 239.417 390.693 238.146 390.838C238.143 389.642 237.87 389.143 237.241 388.186C236.256 387.526 235.677 386.126 236.329 385.188C237.454 385.182 237.784 383.922 238.806 383.364C239.081 382.072 238.473 380.716 238.675 379.381C238.944 377.804 236.901 378.721 236.46 378.077C236.245 376.977 235.455 376.186 234.373 375.807C235.547 374.1 235.399 372.415 233.099 372.322C231.154 370.619 232.695 368.918 234.869 368.83C235.115 367.345 234.879 365.131 236.063 363.523C236.174 362.769 236.017 361.507 236.351 361.396C236.57 362.197 237.663 362.307 237.882 362.525C238.101 362.744 238.429 363.655 238.939 363.727C239.449 363.8 239.85 363.4 240.105 363.764C240.36 364.128 239.814 364.675 239.996 365.403C240.178 366.132 240.943 367.808 241.381 367.553C241.818 367.298 241.964 367.298 242.802 367.553C243.64 367.808 243.822 366.569 244.369 366.605C244.916 366.642 245.499 367.334 246.009 367.443C246.519 367.553 246.92 367.043 247.284 367.808C247.649 368.573 248.195 369.119 248.815 369.884C249.435 370.649 250.273 370.904 250.528 370.613C250.783 370.321 251.22 368.864 251.366 367.808C251.512 366.751 251.22 366.278 252.095 366.387C252.97 366.496 253.99 366.642 254.063 367.516C254.136 368.391 254.172 369.738 254.719 369.483C255.265 369.228 256.286 368.755 256.177 368.026C256.067 367.298 255.703 366.496 256.359 366.533C257.015 366.569 257.489 367.953 257.489 368.646C257.489 369.338 256.978 371.159 257.306 371.669C257.634 372.179 258.473 371.961 258.873 372.653C259.274 373.345 259.857 374.62 260.404 374.438C260.951 374.256 262.7 372.944 263.465 373.163C264.231 373.381 265.871 373.636 266.126 373.054C266.381 372.471 266.417 371.851 267.073 371.924C267.729 371.997 268.677 372.216 269.223 371.997C269.77 371.779 270.389 371.123 270.79 372.034C271.191 372.944 271.993 373.309 271.41 374.001C273.288 373.747 273.389 370.206 275.585 371.074C277.324 372.353 279.501 373.16 278.621 375.811C279.632 377.401 280.781 374.729 279.44 373.927C278.41 370.801 282.356 371.929 283.851 370.881C285.227 369.12 285.298 372.315 286.973 371.704C287.011 373.72 288.806 374.143 290.625 373.837C289.865 372.542 292.745 371.287 293.194 373.009C292.46 375.945 296.517 376.015 296.736 373.346C298.985 372.641 298.406 369.765 295.965 370.379C292.288 370.927 297.04 365.361 294.239 365.404C292.433 366.042 291.608 365.099 291.855 363.299C292.005 362.409 296.584 361.807 294.57 360.641C292.144 361.679 292.716 358.796 294.722 358.869C294.855 356.678 291.677 357.344 292.074 354.865C290.95 351.971 294.057 352.931 295.736 352.302C298.157 352.547 299.66 351.318 299.675 348.837C300.003 348.788 300.294 348.88 300.613 348.929C300.467 348.336 301.099 348.372 301.508 348.096C302.085 347.631 303.429 347.762 304.3 347.587C304.131 346.552 304.005 345.2 304.179 344.011C304.202 342.696 306.276 343.208 307.235 343.233V340.451C306.908 339.285 308.23 339.904 308.926 339.604C309.508 339.235 311.944 339.25 310.493 340.107C310.893 341.392 310.763 342.764 310.903 344.075C311.921 344.497 312.853 342.992 313.118 342.046C313.481 341.168 313.521 338.665 314.629 339.242C315.648 339.954 315.495 341.049 315.827 342.156C316.906 342.577 318.116 343.03 318.072 344.457C317.987 345.564 318.931 345.052 319.496 345.444C320.119 346.442 320.725 345.767 320.627 344.839C319.848 343.739 321.816 344.068 321.424 342.94C320.466 341.705 322.767 342.022 323.345 341.279C322.595 340.698 322.507 339.971 322.835 339.097C321.814 338.845 322.4 337.189 323.397 337.739C324.401 338.786 324.935 337.161 325.979 337.521C326.047 336.599 327.773 336.77 327.438 335.676C328.459 334.77 328.127 333.745 327.037 333.069C326.279 332.285 325.173 331.753 324.19 331.715C324.314 330.703 324.204 329.646 324.439 328.641H324.898C327.31 327.893 326.831 331.525 329.314 330.991C329.436 329.83 330.594 329.591 331.64 329.795C332.456 327.313 336.304 330.449 336.991 327.477C338.267 328.023 339.321 326.024 338.126 325.514C338.29 324.381 338.442 323.245 338.626 322.118C338.826 320.525 337.658 317.516 340.075 317.596C341.99 318.003 341.016 317.344 341.454 316.296C341.053 316.077 341.126 315.303 341.126 315.303C341.126 315.303 340.868 314.787 340.739 314.169C340.61 313.551 341.796 313.397 341.873 312.882C341.95 312.366 341.332 311.877 340.662 311.517C339.992 311.156 339.116 311.284 338.755 310.923C338.394 310.563 339.038 310.382 339.424 310.022C339.811 309.661 339.271 309.249 339.399 308.579C339.528 307.91 339.657 307.807 339.451 307.498C339.669 307.353 340.221 308.025 340.658 308.133C340.832 306.195 342.149 305.334 344.065 305.59C344.687 306.602 344.847 308.056 346.58 307.621C346.85 307.014 347.235 305.435 348.437 306.415C348.564 306.864 348.752 307.312 349.066 307.697C349.185 307.734 349.325 307.843 349.508 308.063C350.237 308.937 351.549 308.864 351.986 308.245C352.423 307.625 353.225 307.88 353.735 307.844C354.246 307.808 354.646 307.188 354.209 306.751C353.772 306.314 352.678 305.476 352.861 305.039C353.043 304.602 354.282 304.165 354.683 304.165C354.979 304.165 355.514 304.045 355.788 304.218C357.186 303.661 356.227 302.099 357.293 301.067C358.603 300.493 357.971 297.16 359.822 298.643C363.223 299.375 358.847 295.358 361.472 295.468C362.781 295.209 362.63 292.951 363.157 291.848C364.201 291.669 364.727 290.849 363.641 290.006C363.197 287.948 365.122 288.419 366.019 287.337C366.554 287.103 367.076 286.844 367.621 286.634C368.417 286.308 369.051 285.604 369.925 285.703C369.861 285.112 370.595 283.842 370.893 284.909C371.395 284.998 371.454 285.255 371.623 285.783C372.227 287.228 372.659 285.321 373.185 284.992C373.534 285.061 374.154 284.837 374.3 285.141C373.59 286.102 374.215 287.331 374.306 288.396C374.576 289.209 376.062 288.85 376.847 289.071C377.997 289.442 377.51 290.773 376.723 291.28C375.335 291.395 377.122 292.531 376.421 293.17C376.299 293.921 374.828 293.37 375.273 294.243C374.789 294.416 374.397 294.69 373.968 295.063C373.072 294.922 373.08 296.035 373.898 296.073C374.846 296.07 375.681 296.731 376.592 296.617C377.285 296.956 378.438 296.799 378.861 296.197C379.425 295.863 379.943 296.325 379.542 296.93C379.044 297.921 380.358 298.205 380.371 298.995C380.699 299.686 381.894 300.102 382.58 299.73C382.982 299.216 383.383 299.143 384.006 299.423C384.393 299.054 385.029 298.712 385.603 298.463C385.865 297.716 384.601 295.803 386.222 296.236C386.913 296.862 387.782 297.296 388.698 297.5C388.771 296.535 390.665 296.497 390.095 295.565C389.584 293.62 386.525 294.521 386.254 292.516C385.986 290.505 388.994 290.518 388.834 288.619C390.092 286.415 385.747 287.851 387.003 285.643C388.395 285.39 390.609 286.585 391.305 285.123C391.466 284.147 386.514 283.924 389.351 283.69C390.444 283.783 391.208 280.77 392.161 283.024C394.727 282.168 389.836 280.625 392.348 279.651C392.634 279.423 391.512 277.045 393.521 277.174C394.079 277.509 395.683 276.499 396.779 276.914C395.564 278.78 397.707 278.807 398.678 277.58C400.297 277.426 403.115 275.772 404.801 275.993C405.008 275.375 405.034 272.645 404.57 271.898C404.106 271.151 403.514 270.3 403.385 269.528C403.256 268.755 403.539 266.539 403.977 266.384C404.415 266.23 404.647 265.87 405.008 265.303C405.368 264.736 405.755 264.169 406.632 264.736C407.508 265.303 408.126 265.096 408.513 264.452C408.9 263.808 409.517 262.238 409.904 261.516C410.29 260.795 411.116 257.214 411.476 257.008C411.837 256.802 412.558 256.184 413.099 256.107C413.64 256.029 414.188 255.402 414.188 255.402C414.627 255.491 415.133 255.563 415.47 255.515C416.011 255.437 416.553 254.948 416.939 254.948C417.429 255.051 418.254 255.617 418.949 255.36C419.645 255.102 420.16 255.128 420.186 254.587C420.212 254.046 419.748 253.35 420.366 252.861C419.53 252.176 418.574 253.695 418.324 252.377C416.149 252.127 416.675 250.67 415.26 249.964C415.416 247.524 413.22 249.039 411.769 248.249C411.441 247.027 414.228 244.543 411.575 245.081C409.732 246.278 409.145 244.371 409.814 242.647C408.335 241.871 405.923 244.078 405.98 241.801C406.207 240.149 404.662 239.147 405.34 237.466C404.774 235.273 407.219 237.52 408.25 237.174C408.037 235.722 408.333 234.195 409.032 233.005C410.456 232.878 411.088 235.554 412.238 233.865C412.753 232.527 410.361 230.773 411.629 230.079C412.207 228.719 413.832 226.881 412.287 226.373C411.908 225.193 413.506 223.744 413.724 222.321C413.241 220.141 415.861 221.107 416.621 220.517C417.655 218.138 413.275 219.999 413.406 218.05C413.327 216.923 415.898 215.755 416.573 216.104C417.97 216.046 419.054 214.321 420.083 214.055C421.66 214.661 422.506 216.383 424.021 216.979C426.103 216.812 425.93 219.52 427.776 219.644C428.444 220.663 428.135 223.297 430.407 221.669C431.488 220.666 433.324 222.188 434.964 221.927C436.012 223.377 438.388 222.841 439.141 221.409C438.066 219.223 440.169 217.357 439.982 215.18C439.012 214.283 438.287 212.883 439.01 211.376C439.779 209.65 438.028 208.143 440.475 208.563C441.312 206.633 443.02 206.946 444.511 206.919C445.353 204.903 446.977 205.576 448.437 205.335C450.237 204.086 448.413 202.166 448.135 200.726C448.795 199.22 445.859 197.073 447.292 196.817C448.782 196.854 449.462 195.144 449.047 193.56C448.673 192.073 447.568 190.807 447.222 189.226C444.845 189.4 446.431 186.326 447.775 186.547C449.542 186.833 450.828 184.955 451.784 184.048C451.724 182.52 453.596 181.638 453.481 179.769C454.307 177.672 452.092 177.032 451.003 176.196C452.611 173.947 448.964 174.6 447.743 173.851C447.857 172.117 448.264 170.169 448.995 168.606C449.501 168.498 449.968 168.451 450.237 168.536C450.93 168.754 450.82 169.301 450.347 169.592C449.873 169.884 449.691 170.831 450.419 170.977C451.148 171.122 453.517 171.05 453.991 171.341C453.991 171.341 454.61 171.632 454.61 172.507C454.61 173.381 455.303 174.51 456.177 175.166C457.052 175.822 458.838 176.66 459.64 176.733C460.441 176.805 461.571 176.15 462.081 176.842C462.591 177.534 462.409 178.408 463.065 178.372C463.721 178.336 464.596 178.153 464.742 177.243C464.887 176.332 465.58 176.186 466.126 176.295C466.673 176.405 467.694 176.113 468.313 176.04C468.933 175.968 470.354 176.733 470.901 176.514C471.447 176.295 472.067 176.077 472.796 176.587C473.524 177.097 474.909 177.279 475.565 177.498C476.221 177.716 478.736 177.789 479.428 178.445C480.121 179.101 479.72 179.793 480.23 180.084C480.74 180.376 481.906 180.958 481.906 180.448C481.906 179.938 481.979 179.101 482.562 179.064C483.146 179.028 484.275 180.048 484.567 180.048C484.858 180.048 485.259 179.246 485.769 179.246C486.28 179.246 487.191 179.574 487.3 179.975C487.409 180.376 487.482 181.359 487.774 181.505C488.065 181.651 488.466 180.448 489.304 180.74C490.143 181.031 490.507 180.995 490.981 180.813C492.435 182.416 492.811 184.818 492.972 186.751C491.44 189.099 494.352 189.962 495.918 188.56C497.606 188.336 501.517 187.842 501.129 190.541C499.707 192.487 502.482 193.737 501.897 195.266C500.109 195.939 499.054 198.138 501.916 197.53C503.425 195.892 504.123 197.592 505.357 198.316C507.281 197.085 508.299 198.935 509.847 199.259C512.277 198.141 511.58 201.44 513.903 201.097C516.409 202.197 518.295 206.74 521.405 203.963C519.659 202.7 520.317 200.44 522.336 199.671C522.508 197.578 524.315 195.291 522.624 193.415C523.425 191.652 526.791 193.833 528.085 194.656C528.291 196.738 529.395 195.745 530.771 195.741C533.454 195.163 534.293 198.335 536.782 198.879C539.731 197.576 540.171 202.459 542.49 201.141C544.326 201.426 545.828 200.623 544.365 198.774C544.848 198.331 545.294 197.619 545.755 197.425C546.448 197.133 547.104 196.623 547.031 197.243C546.958 197.862 546.958 199.283 547.432 199.683C547.905 200.084 548.707 199.611 549.727 200.448C550.748 201.286 551.222 201.651 551.44 201.068C551.659 200.485 551.404 198.736 551.841 197.935C552.279 197.133 553.153 195.968 553.846 195.713C554.538 195.458 557.016 195.203 557.964 195.13C558.911 195.057 560.478 194.51 561.025 193.891C561.572 193.272 561.79 192.652 562.701 192.725C563.612 192.798 566.569 193.991 566.569 193.991C567.038 194.273 567.676 194.948 568.186 195.439C568.696 195.931 570.117 197.844 570.263 198.226C570.409 198.609 571.302 199.501 571.794 199.993C572.286 200.485 573.161 201.268 573.634 201.232C574.108 201.195 575.42 201.268 575.876 201.232C576.331 201.195 577.151 201.578 577.479 202.106C577.807 202.634 578.846 203.891 579.046 204.401C579.246 204.911 578.991 205.603 579.228 206.04C579.465 206.478 580.03 207.297 580.413 207.698C580.795 208.099 581.233 209.793 581.16 210.285C581.087 210.776 580.522 211.56 580.486 212.07C580.449 212.58 580.395 213.163 580.176 213.509C579.957 213.855 579.501 214.693 579.775 215.148C580.048 215.603 580.322 216.168 580.322 216.623C580.322 217.079 580.303 217.461 579.848 217.479C579.392 217.498 579.046 217.898 578.9 218.062C578.755 218.226 578.609 218.755 578.536 218.918C578.463 219.082 577.625 220.449 577.552 220.813C577.479 221.177 577.37 222.871 577.224 223.235C577.078 223.6 577.041 224.347 577.187 224.838C577.333 225.33 577.698 225.931 578.08 226.387C578.463 226.842 578.609 227.498 578.463 227.826C578.317 228.153 577.297 229.228 576.878 229.337C576.458 229.447 575.365 230.321 574.818 230.321C574.272 230.321 573.197 230.576 572.923 230.94C572.65 231.305 571.885 232.653 571.739 233.072C571.593 233.49 571.593 234.948 571.939 235.549C572.286 236.15 572.231 237.297 572.741 237.844C573.251 238.39 573.579 238.208 574.254 237.99C574.928 237.771 575.329 237.643 575.766 237.716C576.203 237.789 576.167 236.915 576.659 237.115C577.151 237.316 577.442 237.516 577.679 237.953C577.916 238.39 578.244 239.192 578.135 239.629C578.025 240.066 577.916 241.378 578.117 241.942C578.317 242.507 578.663 243.126 578.918 243.545C579.174 243.964 579.538 245.367 579.52 245.949C579.502 246.532 579.21 248.991 579.41 249.52C579.611 250.048 579.957 251.578 579.811 251.942C579.665 252.307 578.827 253.181 578.372 253.527C577.916 253.873 575.802 254.766 575.802 254.766L575.383 254.948C575.383 254.948 576.167 256.423 576.914 256.933C577.661 257.443 578.044 258.281 578.481 258.536C578.918 258.791 579.921 259.01 580.413 258.809C580.905 258.609 582.326 259.064 582.854 259.41C583.383 259.756 584.403 260.521 584.859 260.959C585.314 261.396 588.776 264.11 589.25 264.183C589.724 264.256 590.416 265.348 590.781 265.695C591.145 266.041 593.969 265.84 594.625 265.403C595.281 264.966 596.612 265.075 597.049 264.893C597.486 264.711 598.288 264.565 598.816 264.766C599.345 264.966 600.73 265.421 601.149 265.112C601.568 264.802 601.969 264.365 602.224 264.347C602.479 264.328 603.645 264.183 603.736 264.073C603.827 263.964 604.611 263.181 604.611 263.181C604.429 262.634 603.335 261.286 603.08 261.177C602.825 261.068 601.695 260.485 602.206 260.048C602.716 259.611 603.518 259.465 604.538 259.501C605.558 259.538 606.105 257.935 606.797 257.716C607.49 257.498 608.802 256.878 609.604 256.405C610.405 255.931 611.134 255.021 610.952 254.401C610.77 253.782 609.385 251.232 608.875 250.758C608.365 250.285 604.246 246.314 604.21 245.694C604.174 245.075 604.611 244.711 604.611 243.837C604.611 242.962 603.991 242.197 604.684 241.76C605.376 241.323 606.725 239.429 606.834 239.064C606.943 238.7 606.142 237.571 606.433 237.243C606.725 236.915 607.672 236.66 608.146 236.113C608.62 235.567 609.093 235.239 609.021 234.693C608.948 234.146 608.365 233.891 608.911 233.563C609.458 233.235 609.64 233.709 609.749 233.053C609.859 232.398 608.875 231.523 609.021 230.904C609.166 230.285 609.567 230.54 610.077 229.775C610.588 229.01 610.296 228.463 610.916 228.317C611.535 228.172 612.738 227.152 612.956 227.042C613.175 226.933 614.05 227.552 614.159 226.897C614.268 226.241 614.159 225.075 613.795 224.602C613.43 224.128 613.212 223.654 613.539 222.926C613.867 222.197 614.139 221.537 614.371 221.537C614.603 221.537 616.006 221.098 616.573 221.021C617.14 220.944 618.094 220.558 618.377 220.017C618.661 219.476 618.894 218.033 619.254 217.492C619.615 216.951 620.413 216.127 620.671 215.664C620.929 215.2 620.826 214.555 621.187 214.452C621.548 214.349 622.63 214.324 623.197 214.324C623.764 214.324 624.588 213.912 624.614 213.5C624.639 213.087 624.898 212.031 625.13 211.568C625.362 211.104 625.284 210.975 625.773 210.692C626.263 210.409 626.882 209.687 627.114 209.403C627.345 209.12 628.557 208.914 628.789 208.94C629.021 208.966 629.639 210.331 629.768 210.795C629.897 211.258 629.433 212.005 629.793 212.52C630.154 213.036 630.592 213.834 630.618 214.324C630.643 214.813 630.206 215.458 630.799 216.153C631.391 216.849 632.087 217.21 632.55 216.798C633.014 216.385 633.117 216.076 633.736 216.025C634.354 215.973 635.369 215.421 635.624 215.312C635.879 215.203 637.264 215.13 637.592 215.603C637.92 216.077 637.592 216.878 637.556 217.643C637.534 218.101 637.33 218.416 637.365 218.673C637.545 218.837 638.115 218.842 638.566 218.803C640.321 218.41 642.325 219.119 643.519 217.5C644.035 215.866 646.06 215.778 646.92 214.884C647.496 213.73 651.204 213.275 649.688 211.949C647.357 211.654 647.253 209.099 645.985 207.586C646.436 206.942 649.36 206.083 650.857 206.165C653.763 206.35 654.892 202.689 653.296 200.628C652.344 199.119 649.222 200.116 649.454 197.391C648.514 195.052 645.577 197.759 644.041 196.132C643.98 193.815 641.105 193.427 639.349 192.745C637.904 192.444 634.393 193.859 635.365 191.155C635.108 189.354 637.286 186.505 635.028 185.503C633.573 184.087 631.705 183.178 629.64 182.843C628.891 181.207 626.753 180.884 625.924 179.324C626.815 177.086 626.098 175.714 623.8 175.415C622.504 175.432 618.939 175.525 620.16 177.306C622.384 177.609 621.385 181.473 619.797 178.672C618.145 178.17 616.289 178.11 614.453 178.151C614.289 174.878 616.857 178.327 618.345 176.284C620.432 175.764 620.222 173.434 621.883 172.549C624.003 171.885 621.075 168.687 619.473 169.681C618.381 170.871 615.259 169.761 615.227 168.421C614.915 166.39 617.733 166.948 618.558 165.773C620.409 166.036 620.907 168.322 623.23 167.797C625.42 167.358 625.054 165.279 625.872 163.849C627.331 162.208 624.459 161.462 626.013 159.554C626.456 157.728 626.523 156.082 625.71 154.474C627.111 152.646 624.059 151.905 623.015 151.402C622.188 150.855 619.163 149.648 618.503 151.246C617.237 152.004 614.621 151.065 613.802 149.554C613.543 147.717 615.814 147.476 615.937 146.188C615.545 145.24 612.078 142.777 614.54 142.317C617.367 142.149 619.684 139.566 622.692 140.192C625.124 141.254 625.335 137.095 627.494 137.003C629.199 136.352 631.943 136.974 632.161 135.36C631.044 134.097 631.58 131.957 629.963 131.376C628.594 129.546 632.043 127.947 630.355 126.425C631.561 124.445 631.276 121.876 631.528 119.649C631.639 118.24 632.234 117.399 631.919 116.131C631.957 114.579 633.101 113.578 630.541 113.423C628.362 112.204 627.102 114.49 625.271 115.089C623.036 116.552 622.554 114.221 621.362 112.874C621.125 110.944 623.471 109.952 624.88 109.226C626.093 108.376 629.115 109.129 629.182 107.141C628.096 105.835 626.648 104.583 627.227 102.581C626.134 100.958 625.927 98.3159 627.227 96.8474C627.137 95.3305 626.607 93.8676 626.757 92.3108C627.259 90.8102 625.797 89.5154 626.029 88.1259C626.112 87.4088 624.198 88.167 623.518 88.1259C622.189 88.0592 620.494 88.6574 619.39 87.9426C618.612 86.3001 617.839 84.6328 617.726 82.757C616.948 82.1925 616.532 81.5191 617.657 80.9628C618.501 80.0802 619.224 78.6479 618.387 77.4257C618.448 76.2024 617.144 74.8487 618.115 73.7315C619.22 73.8263 618.778 73.009 617.972 72.8742C618.784 71.6799 619.051 70.274 619.399 68.9478C620.484 68.9007 621.507 68.7676 622.437 68.0427C623.804 68.3168 623.699 67.0973 624.524 66.3704C626.308 67.3442 627.907 66.0796 629.179 64.9746C630.938 64.8983 631.873 63.418 633.414 62.8048C634.356 61.8223 634.124 59.7996 635.807 59.3986C637.436 58.7976 636.169 56.9719 635.274 56.2656C634.291 56.374 632.458 57.7262 631.528 56.8474C629.444 57.3252 629.529 54.6487 627.572 55.0224C628.38 53.8381 627.009 53.657 625.888 53.2066C625.028 51.4718 623.331 51.6319 621.767 51.0334C620.744 51.6833 618.951 49.9645 618.552 51.2576C618.831 53.7333 616.553 52.8195 615.016 52.511C613.237 50.7821 614.866 49.0878 615.723 47.5076C615.422 45.2098 612.529 44.5759 612.762 42.0431C612.838 39.6615 608.428 40.425 609.144 37.9584C608.944 35.9061 606.764 37.6016 606.244 36.269C605.22 35.1009 604.322 32.5971 602.201 33.2647C600.631 34.1381 599.344 31.4872 598.201 31.6606C597.891 32.3304 597.607 33 596.705 33.103C595.803 33.206 595.624 34.4942 595.16 34.4942C594.696 34.4942 593.355 34.0819 592.763 34.2107C592.17 34.3395 592.428 34.7777 592.454 35.2672C592.48 35.7566 591.243 35.6274 590.856 35.9366C590.47 36.2457 590.727 36.7619 590.005 37.3801C589.284 37.9983 588.666 38.5905 588.022 38.539C587.377 38.4875 586.424 38.0751 585.754 38.3842C585.084 38.6933 584.336 39.5952 583.563 39.8528C582.79 40.1104 582.223 40.4198 581.785 39.8015C581.347 39.1833 581.244 38.1522 580.548 38.1007C579.853 38.0492 579.595 38.4613 578.951 38.5128C578.306 38.5644 577.791 38.2035 577.302 38.8475C576.812 39.4915 576.502 41.0379 576.502 41.0379C575.868 41.0563 575.243 40.9128 574.615 40.9821C574.18 40.4268 573.67 40.5104 573.002 40.4596C571.865 40.7564 571.342 39.8053 570.39 39.4794C569.178 39.4661 568.892 38.3473 568.142 37.6431C566.765 36.0868 564.689 35.5893 562.78 35.0178C561.699 34.1572 561 35.829 559.89 35.5973C559.018 35.125 558.707 35.9956 558.244 36.3544C557.425 36.6232 555.95 36.0915 555.836 37.3232C555.585 38.9095 553.668 38.471 552.537 38.3455C551.564 38.7539 550.477 38.8615 549.496 39.3849C548.469 38.9825 547.484 39.0895 546.415 39.3883C546.146 39.102 546.079 38.8245 546.285 38.4764C547.061 37.4061 545.847 37.0553 545.214 36.5138C543.765 36.5949 544.176 35.1487 543.808 34.4373C542.693 33.7304 543.973 32.9849 544.459 32.7433C543.738 32.1154 543.472 31.4907 543.162 30.4789C542.64 29.5393 542.417 28.5718 541.168 28.3705C540.237 27.5468 539.322 28.4786 538.257 28.3136C537.531 28.0221 536.551 27.0377 535.986 28.1838C535.166 29.5358 533.558 28.7628 532.345 28.5732C531.295 28.6267 531.009 27.8915 529.703 27.9778C528.626 28.1516 527.447 27.6282 526.322 27.3892C525.489 26.9514 525.342 25.805 524.246 25.5745C523.595 25.4706 520.965 24.6063 522.432 25.7077C521.533 26.4753 520.84 27.6377 521.259 28.8339C522.527 28.8763 521.596 30.4642 521.259 30.9195C520.071 30.835 518.902 30.5428 517.714 30.4231C516.717 30.4016 515.144 29.5762 515.161 31.1722C514.843 32.0998 513.862 32.8113 512.837 32.8378C511.21 33.0185 512.017 33.9836 511.614 34.698C510.633 35.0929 510.256 33.9329 508.928 34.4213C507.698 34.7201 506.528 34.2511 505.292 34.6627C504.267 35.2267 503.79 34.0097 503.27 33.3945C502.144 33.3656 501.309 33.6756 500.596 34.5557C499.65 35.4019 498.43 35.3887 497.253 35.4789C496.457 35.5427 496.443 37.659 497.584 37.4097C499.003 38.5549 496.756 37.4841 496.397 38.1474C496.037 39.0354 498.388 39.1941 497.667 40.3993C497.42 41.538 499.931 41.1414 498.68 42.3278C499.023 43.7336 497.622 44.3159 496.654 43.3888C495.666 42.3339 494.91 43.1194 494.452 44.0206C493.636 44.0237 492.268 42.6992 491.671 43.5573C490.749 43.8836 489.745 43.5413 488.838 43.6392C488.021 43.6964 486.635 43.2982 486.327 44.3394C485.971 45.5523 484.951 45.3928 484.763 44.0559C484.488 43.0828 482.886 43.2981 483.121 44.6263C482.714 45.1959 481.683 45.9997 480.855 45.2957C479.931 45.1285 479.64 44.2435 478.753 44.558C478.246 43.6563 476.694 44.9056 475.866 44.1675C474.851 43.5876 473.991 45.28 473.124 44.2267C472.269 43.4557 471.528 44.237 470.556 43.6882C469.589 43.1429 469.425 41.6191 468.861 41.7335C467.903 41.16 466.885 40.6396 465.733 40.8216C464.653 40.0612 464.005 41.1812 463.387 41.4728C462.798 42.5105 461.972 42.3144 461.041 42.5156C460.246 43.3252 459.544 42.6833 458.455 43.0165C458.474 42.4701 459.403 41.9418 459.476 41.5957C459.549 41.2497 458.565 40.9036 458.583 40.5757C458.601 40.2478 459.184 39.5739 459.239 39.1914C459.294 38.8089 458.222 38.281 458.016 37.8173C457.81 37.3536 457.603 36.8906 457.655 36.4785C457.706 36.0663 458.109 35.0566 457.453 34.6194C456.797 34.1823 455.303 33.7087 454.611 33.7451C454.394 33.7565 454.143 33.718 453.892 33.6529C455.059 35.0049 453.444 37.5432 451.794 36.3954C451.178 34.4532 449.113 38.3362 448.397 36.6914C447.874 36.0405 445.509 35.0035 444.617 35.8307C446.413 37.0971 445.281 37.6834 443.314 37.6943C442.028 39.2398 440.059 38.1177 438.491 38.3455C437.36 39.33 438.12 41.2509 438.21 41.9441C437.825 43.5378 435.681 44.0444 434.385 45.0213C432.234 45.4927 430.939 47.603 428.753 47.8196C427.188 48.0629 425.923 49.5211 424.415 49.5511C423.206 50.6316 421.819 50.7512 420.32 50.7943C419.549 51.7546 418.105 52.1448 416.464 52.4177C414.735 52.5957 415.14 51.7071 413.093 51.6174C411.592 51.1237 409.882 49.3389 408.347 50.0475C408.215 51.7309 406.932 51.871 405.385 52.0261C403.615 51.5314 403.682 54.4023 401.535 53.8351C400.754 53.4588 400.228 52.1383 399.91 50.9844C399.11 51.5945 397.669 54.3223 397.564 51.7665C396.286 50.7383 394.989 52.2703 393.524 51.2451C391.419 50.6138 394.421 54.4737 391.862 53.3945C390.924 53.4331 389.254 52.4785 387.919 52.2868C386.498 52.4367 384.353 53.01 383.503 52.0876C383.567 50.4659 382.993 49.0146 382.257 47.6272C382.959 45.7542 380.521 45.542 379.707 44.6001C380.276 43.0626 378.054 42.0972 378.181 40.4676C378.315 38.5527 380.793 39.8122 381.272 38.3455C382.688 38.9452 384.666 37.8795 385.703 39.1276C387.286 39.8744 389.031 39.8636 390.62 40.5188C392.037 40.8917 394.526 38.9079 392.209 38.1212C390.418 38.8783 389.953 37.1401 390.372 35.5438C390.104 33.7763 390.559 32.5485 389.412 31.0982C389.684 29.4111 388.125 28.5802 388.049 26.8803C386.896 25.7188 386.256 25.5688 385.312 24.1435C384.777 22.7984 382.238 22.7644 382.706 21.2769C379.642 22.1161 376.329 22.9004 373.06 22.1888C371.53 21.9137 370.216 22.7217 368.668 22.1888C366.57 21.3527 367.087 23.2979 367.716 24.0137C367.553 25.4046 365.56 25.0893 364.364 25.6098C362.259 24.7808 363.101 28.0677 360.938 27.2708C359.662 27.2442 359.835 25.4981 359.845 24.8494C359.357 24.6719 358.901 24.5429 358.65 24.8084C358.186 25.2978 358.52 26.4318 357.695 26.2257C356.871 26.0196 356.124 25.3753 355.428 25.3753C354.732 25.3753 352.49 25.8902 351.975 25.6326C351.459 25.375 351.048 25.0144 350.764 25.4265C350.481 25.8387 350.197 26.4574 349.295 26.5604C348.393 26.6635 347.826 27.5908 347.001 27.8742C346.177 28.1575 345.069 28.3634 344.708 29.0331C344.347 29.7029 343.652 30.0642 343.136 30.3218C342.621 30.5794 341.023 31.8929 340.482 32.3824C339.94 32.8718 339.322 32.8202 338.678 33.4127C338.033 34.0051 338.111 34.7006 337.389 34.9325C336.668 35.1643 335.509 34.9322 334.993 34.5716C334.478 34.211 334.013 33.3351 333.137 33.876C332.261 34.417 332.312 35.0359 332.029 35.5768C331.745 36.1178 330.561 35.7573 330.071 35.6543C329.582 35.5512 329.066 35.0355 328.808 35.5507C328.551 36.0658 327.907 36.7867 327.649 37.2503C327.391 37.714 327.984 39.2091 328.216 39.5955C328.448 39.9819 327.777 40.7032 327.288 40.7032C326.798 40.7032 326.128 40.8568 325.845 41.4751C325.925 41.6848 326.609 41.9334 327.108 42.2173C329.132 42.9004 328.348 45.3609 326.959 46.1438C325.052 46.6552 323.953 47.9401 323.97 49.8323C321.129 51.9318 317.793 53.4694 315.188 55.9355C315.774 57.5633 317.298 58.5692 318.055 60.1044C318.094 60.7977 317.908 61.4739 317.921 62.1684C318.135 63.0063 317.594 62.7361 316.99 62.7547C316.2 63.1079 315.663 64.2338 315.698 65.1158C315.858 65.7047 315.566 67.445 314.822 67.0273C314.156 66.7098 313.084 66.997 312.173 66.7165C311.218 66.2421 310.028 66.0212 309.086 66.6277C308.275 66.8751 307.685 67.8882 306.745 67.453C305.919 67.5202 304.876 66.371 304.278 67.1309C303.46 68.0384 303.618 69.3224 303.318 70.4005C302.364 70.3006 302.987 71.6909 302.021 71.5457C301.412 72.0066 302.004 73.6532 300.833 73.5767C300.133 74.5504 298.293 73.3674 298.211 74.698C297.94 75.6202 296.249 75.0529 296.027 76.2611C293.236 75.8363 289.89 77.2167 287.352 75.8877C285.643 73.9631 281.637 75.6576 279.118 75.7465C279.445 73.9065 277.866 73.4983 276.475 72.5521C278.121 70.6733 272.829 69.4458 275.673 68.4856C279.703 71.0171 280.164 65.024 277.241 63.933C277.869 62.5238 278.716 61.2755 277.025 59.8403C274.443 58.785 275.554 52.7413 272.492 53.2363C269.91 55.5641 267.613 52.9166 264.794 52.5965C262.643 49.9719 259.319 52.4521 256.629 50.8273C253.706 52.6646 250.404 51.3037 247.018 51.8519C243.509 50.4029 240.167 52.6922 236.557 52.2276C233.985 49.3751 231.088 54.375 228.361 52.0523C224.934 51.2394 221.037 50.8951 217.716 52.0955C215.345 50.0479 213.007 51.6301 210.133 51.3749C211.145 48.8142 208.531 49.8144 207.19 50.2319C205.681 49.5434 204.274 49.7167 202.703 49.5511C202.476 49.4643 202.289 49.3045 202.105 49.1515C200.737 48.3199 199.132 47.9504 197.686 47.2629C195.993 46.8232 194.624 45.5697 194.165 43.8669C193.244 42.9865 193.617 41.4435 192.673 40.5734C192.192 39.5569 191.209 38.8055 190.842 37.6943C189.846 37.3441 188.719 37.4432 187.76 37.0204C187.013 35.8482 185.557 35.4944 184.324 35.0885C182.664 34.9145 181.04 34.2839 179.49 33.7257C178.789 32.5765 177.575 32.0127 176.201 32.4803C175.127 31.8758 174.504 33.2739 173.276 33.3489C173.003 34.3974 171.639 34.1511 170.776 33.6506C170.391 34.4576 169.111 34.0498 168.422 33.6552C166.789 33.7169 165.235 33.1124 163.654 32.8298C161.732 32.6657 160.681 30.7214 158.798 30.5575C157.069 30.397 155.369 29.8482 153.642 29.7492C153.521 28.6677 152.996 27.4451 151.647 28.5607C150.652 28.1465 152.051 26.1309 150.521 25.3924C149.145 25.8717 146.588 25.5809 147.704 23.5299C148.493 21.7641 146.569 20.6309 146.79 18.6847C147.863 16.6788 147.874 14.1838 147.957 11.8962C149.752 10.6321 147.465 9.82837 147.827 8.37846C146.02 7.90705 146.014 6.39384 144.348 5.99003C142.534 6.78664 141.375 3.58531 141.835 2.69767C144.1 3.31909 141.542 1.19002 142.328 0.375262L142.328 0.375244Z" fill="#CCCDCE"/>
</svg>
