<svg width="1440" height="737" viewBox="0 0 1440 737" fill="none" xmlns="http://www.w3.org/2000/svg">
<path opacity="0.8" d="M1440 0H0V702.623C0 702.623 290 560.718 720 682.759C1150 804.801 1440 682.759 1440 682.759V0Z" fill="url(#paint0_linear)"/>
<path opacity="0.8" d="M1440 0H0V209.738C0 209.738 213.5 127.618 720 203.809C1226.5 280 1440 203.809 1440 203.809V0Z" fill="url(#paint1_linear)"/>
<path fill-rule="evenodd" clip-rule="evenodd" d="M204.928 91.5424L211.227 64.0533L214.8 64.872L208.5 92.3611L204.928 91.5424ZM249.46 72.3357L211.09 95.2433L209.211 92.0963L247.581 69.1887L249.46 72.3357ZM200.631 93.0027L192.613 81.5489L195.616 79.447L203.634 90.9008L200.631 93.0027ZM198.269 97.7426L155.317 87.4342L156.172 83.8701L199.124 94.1786L198.269 97.7426ZM232.052 105.759L210.862 100.605L211.729 97.0433L232.918 102.198L232.052 105.759ZM200.785 102.114L189.331 108.986L187.445 105.843L198.899 98.9706L200.785 102.114ZM209.408 101.28L220.289 118.46L217.192 120.421L206.311 103.241L209.408 101.28ZM205.632 103.836L197.041 139.343L193.479 138.481L202.069 102.975L205.632 103.836Z" fill="white"/>
<path fill-rule="evenodd" clip-rule="evenodd" d="M259.401 73.9693C265.284 73.9693 270.053 69.2002 270.053 63.3173C270.053 57.4343 265.284 52.6652 259.401 52.6652C253.518 52.6652 248.749 57.4343 248.749 63.3173C248.749 69.2002 253.518 73.9693 259.401 73.9693ZM259.401 77.6345C267.308 77.6345 273.718 71.2245 273.718 63.3173C273.718 55.4101 267.308 49 259.401 49C251.494 49 245.084 55.4101 245.084 63.3173C245.084 71.2245 251.494 77.6345 259.401 77.6345Z" fill="white"/>
<path fill-rule="evenodd" clip-rule="evenodd" d="M241.076 111.767C244.428 111.767 247.146 109.049 247.146 105.696C247.146 102.344 244.428 99.6258 241.076 99.6258C237.723 99.6258 235.005 102.344 235.005 105.696C235.005 109.049 237.723 111.767 241.076 111.767ZM241.076 115.432C246.452 115.432 250.811 111.073 250.811 105.696C250.811 100.319 246.452 95.9606 241.076 95.9606C235.699 95.9606 231.34 100.319 231.34 105.696C231.34 111.073 235.699 115.432 241.076 115.432Z" fill="white"/>
<path fill-rule="evenodd" clip-rule="evenodd" d="M214.732 61.3701C216.82 61.3701 218.512 59.6778 218.512 57.5903C218.512 55.5028 216.82 53.8106 214.732 53.8106C212.645 53.8106 210.952 55.5028 210.952 57.5903C210.952 59.6778 212.645 61.3701 214.732 61.3701ZM214.732 65.0353C218.844 65.0353 222.177 61.7021 222.177 57.5903C222.177 53.4786 218.844 50.1454 214.732 50.1454C210.62 50.1454 207.287 53.4786 207.287 57.5903C207.287 61.7021 210.62 65.0353 214.732 65.0353Z" fill="white"/>
<path fill-rule="evenodd" clip-rule="evenodd" d="M189.533 79.6962C193.519 79.6962 196.749 76.4655 196.749 72.4803C196.749 68.4951 193.519 65.2644 189.533 65.2644C185.548 65.2644 182.318 68.4951 182.318 72.4803C182.318 76.4655 185.548 79.6962 189.533 79.6962ZM189.533 83.3614C195.543 83.3614 200.415 78.4898 200.415 72.4803C200.415 66.4708 195.543 61.5992 189.533 61.5992C183.524 61.5992 178.652 66.4708 178.652 72.4803C178.652 78.4898 183.524 83.3614 189.533 83.3614Z" fill="white"/>
<path fill-rule="evenodd" clip-rule="evenodd" d="M149.445 87.7138C151.532 87.7138 153.225 86.0216 153.225 83.9341C153.225 81.8466 151.532 80.1543 149.445 80.1543C147.357 80.1543 145.665 81.8466 145.665 83.9341C145.665 86.0216 147.357 87.7138 149.445 87.7138ZM149.445 91.3791C153.557 91.3791 156.89 88.0458 156.89 83.9341C156.89 79.8223 153.557 76.4891 149.445 76.4891C145.333 76.4891 142 79.8223 142 83.9341C142 88.0458 145.333 91.3791 149.445 91.3791Z" fill="white"/>
<path fill-rule="evenodd" clip-rule="evenodd" d="M180.943 117.494C184.612 117.494 187.586 114.519 187.586 110.851C187.586 107.182 184.612 104.207 180.943 104.207C177.274 104.207 174.299 107.182 174.299 110.851C174.299 114.519 177.274 117.494 180.943 117.494ZM180.943 121.159C186.636 121.159 191.251 116.544 191.251 110.851C191.251 105.157 186.636 100.542 180.943 100.542C175.25 100.542 170.634 105.157 170.634 110.851C170.634 116.544 175.25 121.159 180.943 121.159Z" fill="white"/>
<path fill-rule="evenodd" clip-rule="evenodd" d="M192.397 155.291C196.066 155.291 199.04 152.317 199.04 148.648C199.04 144.979 196.066 142.005 192.397 142.005C188.728 142.005 185.754 144.979 185.754 148.648C185.754 152.317 188.728 155.291 192.397 155.291ZM192.397 158.957C198.09 158.957 202.705 154.341 202.705 148.648C202.705 142.955 198.09 138.34 192.397 138.34C186.704 138.34 182.088 142.955 182.088 148.648C182.088 154.341 186.704 158.957 192.397 158.957Z" fill="white"/>
<path fill-rule="evenodd" clip-rule="evenodd" d="M223.322 130.093C225.726 130.093 227.675 128.144 227.675 125.741C227.675 123.337 225.726 121.388 223.322 121.388C220.919 121.388 218.97 123.337 218.97 125.741C218.97 128.144 220.919 130.093 223.322 130.093ZM223.322 133.758C227.75 133.758 231.34 130.169 231.34 125.741C231.34 121.312 227.75 117.723 223.322 117.723C218.894 117.723 215.305 121.312 215.305 125.741C215.305 130.169 218.894 133.758 223.322 133.758Z" fill="white"/>
<path d="M211.869 97.106C211.869 100.901 208.792 103.978 204.996 103.978C201.201 103.978 198.124 100.901 198.124 97.106C198.124 93.3105 201.201 90.2337 204.996 90.2337C208.792 90.2337 211.869 93.3105 211.869 97.106Z" fill="white"/>
<path d="M283.378 109.145C283.378 111.016 283.082 112.718 282.489 114.252C281.897 115.786 281.06 117.099 279.98 118.191C278.899 119.283 277.603 120.132 276.093 120.736C274.582 121.328 272.909 121.625 271.073 121.625H261.73V96.6478H271.073C272.909 96.6478 274.582 96.9499 276.093 97.5542C277.603 98.1468 278.899 98.995 279.98 100.099C281.06 101.191 281.897 102.504 282.489 104.038C283.082 105.572 283.378 107.274 283.378 109.145ZM279.91 109.145C279.91 107.611 279.701 106.24 279.282 105.032C278.864 103.823 278.271 102.801 277.504 101.964C276.738 101.127 275.808 100.488 274.716 100.047C273.623 99.6051 272.409 99.3843 271.073 99.3843H265.129V118.888H271.073C272.409 118.888 273.623 118.668 274.716 118.226C275.808 117.784 276.738 117.151 277.504 116.326C278.271 115.489 278.864 114.467 279.282 113.258C279.701 112.05 279.91 110.679 279.91 109.145Z" fill="white"/>
<path d="M294.479 103.689C295.536 103.689 296.512 103.87 297.407 104.23C298.302 104.578 299.074 105.09 299.725 105.764C300.376 106.426 300.881 107.251 301.241 108.239C301.613 109.215 301.799 110.33 301.799 111.585C301.799 112.073 301.747 112.399 301.642 112.561C301.538 112.724 301.34 112.805 301.05 112.805H289.302C289.325 113.921 289.476 114.891 289.755 115.716C290.034 116.541 290.418 117.232 290.906 117.79C291.394 118.336 291.975 118.749 292.649 119.028C293.322 119.295 294.078 119.429 294.914 119.429C295.693 119.429 296.361 119.341 296.919 119.167C297.488 118.981 297.976 118.784 298.383 118.575C298.79 118.365 299.127 118.174 299.394 117.999C299.673 117.813 299.911 117.72 300.109 117.72C300.364 117.72 300.562 117.819 300.701 118.017L301.573 119.15C301.189 119.615 300.73 120.021 300.196 120.37C299.661 120.707 299.086 120.986 298.47 121.206C297.866 121.427 297.238 121.59 296.588 121.695C295.937 121.811 295.292 121.869 294.653 121.869C293.433 121.869 292.306 121.665 291.272 121.259C290.249 120.84 289.36 120.236 288.605 119.446C287.861 118.644 287.28 117.657 286.862 116.483C286.444 115.309 286.234 113.961 286.234 112.439C286.234 111.208 286.42 110.057 286.792 108.988C287.176 107.919 287.722 106.995 288.431 106.217C289.139 105.427 290.005 104.811 291.028 104.369C292.05 103.916 293.2 103.689 294.479 103.689ZM294.548 105.973C293.049 105.973 291.87 106.409 291.01 107.28C290.15 108.14 289.616 109.337 289.407 110.871H299.01C299.01 110.15 298.912 109.494 298.714 108.901C298.517 108.297 298.226 107.78 297.843 107.35C297.459 106.908 296.989 106.571 296.431 106.339C295.885 106.095 295.257 105.973 294.548 105.973Z" fill="white"/>
<path d="M303.097 103.968H305.641C305.885 103.968 306.089 104.032 306.251 104.16C306.414 104.288 306.53 104.439 306.6 104.613L311.08 115.978C311.242 116.396 311.37 116.814 311.463 117.232C311.556 117.651 311.643 118.063 311.724 118.47C311.817 118.063 311.916 117.651 312.021 117.232C312.125 116.814 312.259 116.396 312.422 115.978L316.953 104.613C317.023 104.427 317.133 104.276 317.285 104.16C317.447 104.032 317.645 103.968 317.877 103.968H320.3L313.101 121.625H310.295L303.097 103.968Z" fill="white"/>
<path d="M329.713 103.689C330.77 103.689 331.746 103.87 332.641 104.23C333.536 104.578 334.308 105.09 334.959 105.764C335.61 106.426 336.115 107.251 336.476 108.239C336.847 109.215 337.033 110.33 337.033 111.585C337.033 112.073 336.981 112.399 336.876 112.561C336.772 112.724 336.574 112.805 336.284 112.805H324.536C324.559 113.921 324.71 114.891 324.989 115.716C325.268 116.541 325.652 117.232 326.14 117.79C326.628 118.336 327.209 118.749 327.883 119.028C328.557 119.295 329.312 119.429 330.149 119.429C330.927 119.429 331.595 119.341 332.153 119.167C332.722 118.981 333.21 118.784 333.617 118.575C334.024 118.365 334.361 118.174 334.628 117.999C334.907 117.813 335.145 117.72 335.343 117.72C335.598 117.72 335.796 117.819 335.935 118.017L336.807 119.15C336.423 119.615 335.964 120.021 335.43 120.37C334.895 120.707 334.32 120.986 333.704 121.206C333.1 121.427 332.473 121.59 331.822 121.695C331.171 121.811 330.526 121.869 329.887 121.869C328.667 121.869 327.54 121.665 326.506 121.259C325.483 120.84 324.594 120.236 323.839 119.446C323.095 118.644 322.514 117.657 322.096 116.483C321.678 115.309 321.469 113.961 321.469 112.439C321.469 111.208 321.654 110.057 322.026 108.988C322.41 107.919 322.956 106.995 323.665 106.217C324.373 105.427 325.239 104.811 326.262 104.369C327.284 103.916 328.435 103.689 329.713 103.689ZM329.783 105.973C328.284 105.973 327.104 106.409 326.244 107.28C325.384 108.14 324.85 109.337 324.641 110.871H334.245C334.245 110.15 334.146 109.494 333.948 108.901C333.751 108.297 333.46 107.78 333.077 107.35C332.693 106.908 332.223 106.571 331.665 106.339C331.119 106.095 330.491 105.973 329.783 105.973Z" fill="white"/>
<path d="M344.874 118.784H355.68V121.625H341.492V96.6478H344.874V118.784Z" fill="white"/>
<path d="M365.287 103.689C366.345 103.689 367.321 103.87 368.215 104.23C369.11 104.578 369.883 105.09 370.534 105.764C371.184 106.426 371.69 107.251 372.05 108.239C372.422 109.215 372.608 110.33 372.608 111.585C372.608 112.073 372.555 112.399 372.451 112.561C372.346 112.724 372.149 112.805 371.858 112.805H360.111C360.134 113.921 360.285 114.891 360.564 115.716C360.843 116.541 361.226 117.232 361.714 117.79C362.202 118.336 362.783 118.749 363.457 119.028C364.131 119.295 364.886 119.429 365.723 119.429C366.501 119.429 367.17 119.341 367.727 119.167C368.297 118.981 368.785 118.784 369.191 118.575C369.598 118.365 369.935 118.174 370.202 117.999C370.481 117.813 370.719 117.721 370.917 117.721C371.173 117.721 371.37 117.819 371.51 118.017L372.381 119.15C371.998 119.615 371.539 120.021 371.004 120.37C370.47 120.707 369.894 120.986 369.279 121.206C368.674 121.427 368.047 121.59 367.396 121.695C366.745 121.811 366.101 121.869 365.461 121.869C364.241 121.869 363.114 121.665 362.08 121.259C361.058 120.84 360.169 120.236 359.413 119.446C358.67 118.644 358.089 117.657 357.67 116.483C357.252 115.309 357.043 113.961 357.043 112.439C357.043 111.208 357.229 110.057 357.601 108.988C357.984 107.919 358.53 106.995 359.239 106.217C359.948 105.427 360.814 104.811 361.836 104.369C362.859 103.916 364.009 103.689 365.287 103.689ZM365.357 105.973C363.858 105.973 362.679 106.409 361.819 107.28C360.959 108.14 360.424 109.337 360.215 110.871H369.819C369.819 110.15 369.72 109.494 369.523 108.901C369.325 108.297 369.035 107.78 368.651 107.35C368.268 106.908 367.797 106.571 367.239 106.339C366.693 106.095 366.066 105.973 365.357 105.973Z" fill="white"/>
<path d="M389.547 121.625H388.17C387.867 121.625 387.623 121.578 387.438 121.485C387.252 121.392 387.13 121.195 387.071 120.893L386.723 119.254C386.258 119.673 385.805 120.05 385.363 120.387C384.922 120.713 384.457 120.992 383.969 121.224C383.481 121.445 382.958 121.613 382.4 121.729C381.854 121.846 381.244 121.904 380.57 121.904C379.885 121.904 379.24 121.811 378.635 121.625C378.043 121.427 377.526 121.137 377.084 120.753C376.643 120.37 376.288 119.888 376.021 119.307C375.765 118.714 375.638 118.017 375.638 117.215C375.638 116.518 375.829 115.85 376.213 115.211C376.596 114.56 377.212 113.985 378.06 113.485C378.92 112.985 380.041 112.579 381.424 112.265C382.807 111.94 384.498 111.754 386.496 111.707V110.33C386.496 108.959 386.2 107.925 385.607 107.228C385.026 106.519 384.161 106.165 383.01 106.165C382.255 106.165 381.616 106.263 381.093 106.461C380.582 106.647 380.134 106.862 379.751 107.106C379.379 107.338 379.054 107.553 378.775 107.751C378.508 107.937 378.24 108.03 377.973 108.03C377.764 108.03 377.578 107.977 377.415 107.873C377.264 107.756 377.142 107.617 377.049 107.454L376.492 106.461C377.468 105.52 378.519 104.817 379.646 104.352C380.774 103.887 382.023 103.655 383.394 103.655C384.381 103.655 385.259 103.817 386.026 104.143C386.793 104.468 387.438 104.921 387.96 105.502C388.483 106.083 388.878 106.786 389.146 107.611C389.413 108.436 389.547 109.343 389.547 110.33V121.625ZM381.494 119.725C382.04 119.725 382.54 119.673 382.993 119.568C383.446 119.452 383.87 119.295 384.265 119.097C384.672 118.888 385.055 118.638 385.416 118.348C385.787 118.057 386.148 117.726 386.496 117.354V113.677C385.067 113.723 383.853 113.839 382.853 114.025C381.854 114.2 381.041 114.432 380.413 114.723C379.786 115.013 379.327 115.356 379.036 115.751C378.757 116.146 378.618 116.588 378.618 117.076C378.618 117.54 378.694 117.941 378.845 118.278C378.996 118.615 379.199 118.894 379.455 119.115C379.71 119.324 380.012 119.481 380.361 119.586C380.71 119.678 381.087 119.725 381.494 119.725Z" fill="white"/>
<path d="M394.247 121.625V103.968H396.025C396.362 103.968 396.594 104.032 396.722 104.16C396.85 104.288 396.937 104.509 396.983 104.822L397.192 107.576C397.797 106.345 398.54 105.386 399.424 104.7C400.318 104.003 401.364 103.655 402.561 103.655C403.049 103.655 403.49 103.713 403.886 103.829C404.281 103.934 404.647 104.085 404.984 104.282L404.583 106.6C404.501 106.891 404.321 107.036 404.042 107.036C403.88 107.036 403.63 106.984 403.293 106.879C402.956 106.763 402.485 106.705 401.881 106.705C400.8 106.705 399.894 107.019 399.162 107.646C398.442 108.274 397.837 109.186 397.349 110.383V121.625H394.247Z" fill="white"/>
<path d="M408.306 121.625V103.968H410.154C410.596 103.968 410.874 104.183 410.991 104.613L411.235 106.531C412.002 105.682 412.856 104.997 413.797 104.474C414.75 103.951 415.848 103.689 417.091 103.689C418.056 103.689 418.904 103.852 419.636 104.178C420.38 104.491 420.995 104.944 421.483 105.537C421.983 106.118 422.361 106.821 422.616 107.646C422.872 108.471 423 109.383 423 110.383V121.625H419.897V110.383C419.897 109.046 419.589 108.012 418.974 107.28C418.369 106.536 417.44 106.165 416.185 106.165C415.267 106.165 414.407 106.385 413.605 106.827C412.815 107.268 412.083 107.867 411.409 108.622V121.625H408.306Z" fill="white"/>
<defs>
<linearGradient id="paint0_linear" x1="0.000125423" y1="-1.84905e-05" x2="1306.88" y2="877.422" gradientUnits="userSpaceOnUse">
<stop stop-color="#379BE1"/>
<stop offset="1" stop-color="#024A7C"/>
</linearGradient>
<linearGradient id="paint1_linear" x1="0.000125423" y1="-5.51955e-06" x2="312.937" y2="703.839" gradientUnits="userSpaceOnUse">
<stop stop-color="#379BE1"/>
<stop offset="1" stop-color="#024A7C"/>
</linearGradient>
</defs>
</svg>
